<?xml version="1.0" encoding="utf-8"?>
<!-- Generator: Adobe Illustrator 23.0.0, SVG Export Plug-In . SVG Version: 6.00 Build 0)  -->
<svg version="1.1" id="图层_1" xmlns="http://www.w3.org/2000/svg" xmlns:xlink="http://www.w3.org/1999/xlink" x="0px" y="0px"
	 width="60px" height="60px" viewBox="0 0 60 60" style="enable-background:new 0 0 60 60;" xml:space="preserve">
<style type="text/css">
	.st0{fill:#1A73E8;}
	.st1{fill:url(#SVGID_1_);}
	.st2{fill:#FFFFFF;}
</style>
<circle id="XMLID_210_" class="st0" cx="30" cy="29.81" r="28.5"/>
<linearGradient id="SVGID_1_" gradientUnits="userSpaceOnUse" x1="23.5536" y1="18.956" x2="52.3571" y2="47.7595">
	<stop  offset="0" style="stop-color:#015AB5"/>
	<stop  offset="1" style="stop-color:#3B91E9"/>
</linearGradient>
<path class="st1" d="M58.5,29.81c0-0.14-0.01-0.28-0.01-0.43L40.73,14.15l-1.64,1.87l-6.31,0.82l-1.75-2.69l-4.9,2.21l-4.17,25.51
	l17.92,14.68C50.75,52.53,58.5,42.08,58.5,29.81z"/>
<g id="XMLID_1_">
	<path class="st2" d="M31.04,14.15v2.67c-0.87,0.13-1.52,0.52-1.94,1.15c-0.43,0.63-0.64,1.54-0.64,2.72v18.24v0.95
		c0,0.34,0.07,0.7,0.21,1.07c0.14,0.38,0.32,0.7,0.54,0.96c0.24,0.29,0.49,0.5,0.75,0.63s0.63,0.21,1.08,0.25v2.69
		c-2.86,0-5.34-0.74-7.44-2.23c-1.86-1.31-3.25-3.07-4.2-5.29c-0.94-2.22-1.41-4.84-1.41-7.87c0-2.22,0.31-4.3,0.92-6.22
		c0.61-1.92,1.5-3.59,2.66-5c1.18-1.43,2.59-2.58,4.23-3.45c1.64-0.87,3.22-1.3,4.74-1.3L31.04,14.15z M32.78,16.85v-2.67
		c0.72,0.12,1.31,0.24,1.76,0.38c0.45,0.13,1.26,0.41,2.44,0.84c0.75,0.27,1.25,0.4,1.5,0.4c0.43,0,0.75-0.19,0.97-0.57l0.29-0.53
		c0.18-0.35,0.51-0.53,0.99-0.53c0.4,0,0.7,0.12,0.92,0.35c0.21,0.24,0.32,0.58,0.32,1.04v9.19c0,0.59-0.13,1.02-0.4,1.28
		c-0.27,0.27-0.57,0.4-0.91,0.4c-0.35,0-0.64-0.11-0.85-0.34c-0.21-0.23-0.39-0.6-0.52-1.12c-0.31-1.16-0.61-2.08-0.91-2.74
		c-0.63-1.4-1.35-2.53-2.16-3.4c-0.54-0.59-1.09-1.04-1.63-1.36C34.05,17.14,33.45,16.94,32.78,16.85z M32.85,45.49V42.8
		c1.15-0.09,2.36-0.52,3.62-1.3c0.68-0.43,1.28-1,1.81-1.71c0.53-0.71,0.93-1.5,1.19-2.35c0.15-0.47,0.32-0.81,0.52-1
		c0.2-0.2,0.46-0.3,0.78-0.3c0.35,0,0.65,0.13,0.88,0.4c0.24,0.27,0.35,0.6,0.35,0.99c0,0.66-0.25,1.47-0.76,2.41
		c-0.51,0.94-1.16,1.81-1.96,2.61c-0.97,0.97-1.97,1.69-2.99,2.16S34.13,45.44,32.85,45.49z"/>
</g>
</svg>
