<?xml version="1.0" encoding="utf-8"?>
<!-- Generator: Adobe Illustrator 23.0.0, SVG Export Plug-In . SVG Version: 6.00 Build 0)  -->
<svg version="1.1" id="图层_1" xmlns="http://www.w3.org/2000/svg" xmlns:xlink="http://www.w3.org/1999/xlink" x="0px" y="0px"
	 width="60px" height="60px" viewBox="0 0 60 60" style="enable-background:new 0 0 60 60;" xml:space="preserve">
<style type="text/css">
	.st0{fill:#4baefd;}
	.st1{fill:#FFFFFF;}
</style>
<path class="st0" d="M8.47,3.78h42.28c2.76,0,5,2.24,5,5v42.28c0,2.76-2.24,5-5,5H8.47c-2.76,0-5-2.24-5-5V8.78
	C3.47,6.02,5.71,3.78,8.47,3.78z"/>
<g>
	<path class="st1" d="M29.61,26.91L19.51,16.81l-2.58,2.58l12.68,12.68L42.3,19.38l-2.58-2.57L29.61,26.91z M29.61,26.91"/>
	<path class="st1" d="M29.61,37.88l-10.11-10.1l-2.58,2.58l12.68,12.68L42.3,30.35l-2.58-2.58L29.61,37.88z M29.61,37.88"/>
</g>
</svg>
