<?xml version="1.0" encoding="utf-8"?>
<!-- Generator: Adobe Illustrator 23.0.0, SVG Export Plug-In . SVG Version: 6.00 Build 0)  -->
<svg version="1.1" id="图层_1" xmlns="http://www.w3.org/2000/svg" xmlns:xlink="http://www.w3.org/1999/xlink" x="0px" y="0px"
	 width="60px" height="60px" viewBox="0 0 60 60" style="enable-background:new 0 0 60 60;" xml:space="preserve">
<style type="text/css">
	.st0{fill:#1A73E8;}
	.st1{fill:url(#SVGID_1_);}
	.st2{clip-path:url(#SVGID_3_);fill:#FFFFFF;}
</style>
<circle id="XMLID_236_" class="st0" cx="29.67" cy="29.81" r="28.5"/>
<linearGradient id="SVGID_1_" gradientUnits="userSpaceOnUse" x1="18.6813" y1="18.3993" x2="50.026" y2="49.744">
	<stop  offset="0" style="stop-color:#015AB5"/>
	<stop  offset="1" style="stop-color:#3B91E9"/>
</linearGradient>
<path class="st1" d="M55.16,42.55l-9.64-10.62l-7.25-18.48l-1.43,22.31l-13.31-22.2l-1.2,32.86l11.44,11.6
	C43.15,56.66,51.06,50.73,55.16,42.55z"/>
<g>
	<g>
		<defs>
			<rect id="SVGID_2_" x="13.07" y="13.14" width="33.2" height="33.34"/>
		</defs>
		<clipPath id="SVGID_3_">
			<use xlink:href="#SVGID_2_"  style="overflow:visible;"/>
		</clipPath>
		<path class="st2" d="M20.81,13.99c0.34-0.49,0.91-0.79,1.51-0.78c0.99,0,1.85,0.84,1.85,1.88v29.44c0.02,1.02-0.8,1.87-1.82,1.88
			l-0.03,0c-1.03-0.02-1.85-0.86-1.85-1.88V27.96h-5.19c-2.03,0-2.81-1.37-1.71-3.09l6.28-9.84C20.19,14.49,20.52,14.14,20.81,13.99
			L20.81,13.99z M38.7,45.39c-0.32,0.59-0.94,0.95-1.61,0.95c-1.02-0.02-1.85-0.86-1.85-1.88V15.02c0-1.06,0.83-1.88,1.85-1.88
			c0.99,0,1.85,0.84,1.85,1.88v16.57h5.12c2.04,0,2.78,1.4,1.68,3.08l-6.68,10.23C38.95,45.08,38.83,45.24,38.7,45.39L38.7,45.39z
			 M38.7,45.39"/>
	</g>
</g>
</svg>
