<?xml version="1.0" encoding="utf-8"?>
<!-- Generator: Adobe Illustrator 19.0.0, SVG Export Plug-In . SVG Version: 6.00 Build 0)  -->
<svg version="1.1" id="图层_1" xmlns="http://www.w3.org/2000/svg" xmlns:xlink="http://www.w3.org/1999/xlink" x="0px" y="0px"
	 width="60px" height="60px" viewBox="-267 390.9 60 60" style="enable-background:new -267 390.9 60 60;" xml:space="preserve">
<style type="text/css">
	.st0{fill:#1A73E8;}
	.st1{fill:url(#XMLID_2_);}
	.st2{clip-path:url(#XMLID_3_);fill:#FFFFFF;}
	.st3{fill:#FFFFFF;}
</style>
<circle id="XMLID_119_" class="st0" cx="-237" cy="420.9" r="30"/>
<linearGradient id="XMLID_2_" gradientUnits="userSpaceOnUse" x1="-250.0025" y1="407.6026" x2="-215.647" y2="441.9582">
	<stop  offset="0" style="stop-color:#015AB5"/>
	<stop  offset="1" style="stop-color:#3B91E9"/>
</linearGradient>
<path id="XMLID_153_" class="st1" d="M-207,420.9c0-0.2,0-0.4,0-0.6l-11.8-12l-0.2,0.7l-22.9,0.9l0.3,4.4l-5.1-5.2l-6.4,1.5V435
	c0,0,8.8,7.7,18,15.8C-219.4,449.8-207,436.8-207,420.9z"/>
<g id="XMLID_120_">
	<g id="XMLID_132_">
		<defs>
			<rect id="XMLID_133_" x="-253.1" y="408.1" width="34.5" height="28.1"/>
		</defs>
		<clipPath id="XMLID_3_">
			<use xlink:href="#XMLID_133_"  style="overflow:visible;"/>
		</clipPath>
		<path id="XMLID_140_" class="st2" d="M-246.6,412.4c0,1.2-1,2.2-2.2,2.2h-2.2c-1.2,0-2.2-1-2.2-2.2v-2.2c0-1.2,1-2.2,2.2-2.2h2.2
			c1.2,0,2.2,1,2.2,2.2V412.4z M-246.6,412.4"/>
		<path id="XMLID_137_" class="st2" d="M-246.6,423.2c0,1.2-1,2.2-2.2,2.2h-2.2c-1.2,0-2.2-1-2.2-2.2V421c0-1.2,1-2.2,2.2-2.2h2.2
			c1.2,0,2.2,1,2.2,2.2V423.2z M-246.6,423.2"/>
		<path id="XMLID_134_" class="st2" d="M-246.6,434c0,1.2-1,2.2-2.2,2.2h-2.2c-1.2,0-2.2-1-2.2-2.2v-2.2c0-1.2,1-2.2,2.2-2.2h2.2
			c1.2,0,2.2,1,2.2,2.2V434z M-246.6,434"/>
	</g>
	<path id="XMLID_129_" class="st3" d="M-218.6,412.4c0,1.2-1,2.2-2.2,2.2h-19.4c-1.2,0-2.2-1-2.2-2.2v-2.2c0-1.2,1-2.2,2.2-2.2h19.4
		c1.2,0,2.2,1,2.2,2.2V412.4z M-218.6,412.4"/>
	<path id="XMLID_126_" class="st3" d="M-218.6,423.2c0,1.2-1,2.2-2.2,2.2h-19.4c-1.2,0-2.2-1-2.2-2.2V421c0-1.2,1-2.2,2.2-2.2h19.4
		c1.2,0,2.2,1,2.2,2.2V423.2z M-218.6,423.2"/>
	<path id="XMLID_123_" class="st3" d="M-218.6,434c0,1.2-1,2.2-2.2,2.2h-19.4c-1.2,0-2.2-1-2.2-2.2v-2.2c0-1.2,1-2.2,2.2-2.2h19.4
		c1.2,0,2.2,1,2.2,2.2V434z M-218.6,434"/>
</g>
</svg>
