<?xml version="1.0" encoding="utf-8"?>
<!-- Generator: Adobe Illustrator 23.0.0, SVG Export Plug-In . SVG Version: 6.00 Build 0)  -->
<svg version="1.1" id="图层_1" xmlns="http://www.w3.org/2000/svg" xmlns:xlink="http://www.w3.org/1999/xlink" x="0px" y="0px"
	 width="60px" height="60px" viewBox="0 0 60 60" style="enable-background:new 0 0 60 60;" xml:space="preserve">
<style type="text/css">
	.st0{fill:#1A73E8;}
	.st1{fill:url(#SVGID_1_);}
	.st2{fill:#FFFFFF;}
</style>
<circle id="XMLID_11_" class="st0" cx="29.67" cy="30.31" r="28.5"/>
<linearGradient id="SVGID_1_" gradientUnits="userSpaceOnUse" x1="17.6398" y1="18.1311" x2="49.897" y2="50.3883">
	<stop  offset="0" style="stop-color:#015AB5"/>
	<stop  offset="1" style="stop-color:#3B91E9"/>
</linearGradient>
<path class="st1" d="M29.67,58.81c15.74,0,28.5-12.76,28.5-28.5c0-1.07-0.06-2.12-0.18-3.16l-9.52-10l-6.13,0.48l6.97,7.12
	l-0.35,0.82l-9.23-9.53l-2.01-1.96H21.67l-0.76,6.83l5.07,5.76l-6.69,5.33l6.69,7.34l-0.38,0.31l-8.61-9.36l-7.58,3.62l-0.46,7.32
	c0,0,15.6,14.02,19.69,17.53C28.99,58.8,29.32,58.81,29.67,58.81z"/>
<g>
	<path class="st2" d="M7.94,37.56c0,4,3.24,7.24,7.24,7.24h1.81v-1.81h-1.81c-3,0-5.43-2.43-5.43-5.43c0-3,2.43-5.43,5.43-5.43h1.81
		v-1.81h-1.81c-1.92,0-3.76,0.76-5.12,2.12C8.7,33.79,7.94,35.63,7.94,37.56L7.94,37.56z M36.91,26.69H22.43
		c-1.98,0.03-3.56,1.64-3.56,3.62c0,1.98,1.59,3.59,3.56,3.62h14.48c1.31,0.02,2.53-0.66,3.19-1.79c0.66-1.13,0.66-2.53,0-3.66
		C39.44,27.36,38.22,26.67,36.91,26.69L36.91,26.69z M36.91,39.37H22.43c-2,0-3.62,1.62-3.62,3.62c0,2,1.62,3.62,3.62,3.62h14.48
		c1.96-0.06,3.52-1.66,3.52-3.62C40.43,41.03,38.87,39.42,36.91,39.37L36.91,39.37z M36.91,14.02H22.43c-2,0-3.62,1.62-3.62,3.62
		s1.62,3.62,3.62,3.62h14.48c1.31,0.02,2.53-0.66,3.19-1.79c0.66-1.13,0.66-2.53,0-3.66C39.44,14.68,38.22,14,36.91,14.02
		L36.91,14.02z M44.15,15.83h-1.81v1.81h1.81c1.44,0,2.82,0.57,3.84,1.59c1.02,1.02,1.59,2.4,1.59,3.84c0,1.44-0.57,2.82-1.59,3.84
		c-1.02,1.02-2.4,1.59-3.84,1.59h-1.81v1.81h1.81c4,0,7.24-3.24,7.24-7.24C51.39,19.07,48.15,15.83,44.15,15.83L44.15,15.83z
		 M44.15,15.83"/>
</g>
</svg>
