<?xml version="1.0" encoding="utf-8"?>
<!-- Generator: Adobe Illustrator 23.0.0, SVG Export Plug-In . SVG Version: 6.00 Build 0)  -->
<svg version="1.1" id="图层_1" xmlns="http://www.w3.org/2000/svg" xmlns:xlink="http://www.w3.org/1999/xlink" x="0px" y="0px"
	 width="60px" height="60px" viewBox="0 0 60 60" style="enable-background:new 0 0 60 60;" xml:space="preserve">
<style type="text/css">
	.st0{fill:#1A73E8;}
	.st1{fill:url(#SVGID_1_);}
	.st2{clip-path:url(#SVGID_3_);fill:#FFFFFF;}
</style>
<circle id="XMLID_229_" class="st0" cx="30.09" cy="29.94" r="28.5"/>
<linearGradient id="SVGID_1_" gradientUnits="userSpaceOnUse" x1="21.8176" y1="20.0872" x2="51.0264" y2="49.2959">
	<stop  offset="0" style="stop-color:#015AB5"/>
	<stop  offset="1" style="stop-color:#3B91E9"/>
</linearGradient>
<path class="st1" d="M58.07,35.36L36.53,17.31h-5.61l-8.86,8.54l3.42,3.22l-0.11,0.38l-4.62-0.38l-4.64-3.28l-4.2,4.2L38.05,57.3
	C48.22,54.35,56.04,45.89,58.07,35.36z"/>
<g>
	<g>
		<defs>
			<rect id="SVGID_2_" x="11.64" y="11.45" width="38.58" height="38.64"/>
		</defs>
		<clipPath id="SVGID_3_">
			<use xlink:href="#SVGID_2_"  style="overflow:visible;"/>
		</clipPath>
		<path class="st2" d="M49.92,29.99l-4.2-4.2c-0.38-0.38-0.98-0.38-1.36,0l-3.28,3.28H20.75l-3.28-3.28c-0.38-0.38-0.98-0.38-1.36,0
			l-4.2,4.2c-0.38,0.38-0.38,0.98,0,1.36l4.2,4.2c0.38,0.38,0.98,0.38,1.36,0l3.28-3.28h20.33l3.28,3.28c0.38,0.38,0.98,0.38,1.36,0
			l4.2-4.2C50.29,30.98,50.29,30.37,49.92,29.99L49.92,29.99z M49.92,29.99"/>
		<path class="st2" d="M32.33,39.99c-0.38-0.38-0.98-0.38-1.36,0l-0.93,0.93l-5.15-5.26c-0.62-0.64-1.64-0.65-2.27-0.03
			c-0.64,0.62-0.65,1.64-0.03,2.27l5.17,5.29l-0.99,0.99c-0.38,0.38-0.38,0.98,0,1.36l4.2,4.2c0.38,0.38,0.98,0.38,1.36,0l4.2-4.2
			c0.38-0.38,0.38-0.98,0-1.36L32.33,39.99z M23.24,26.35c0.4,0,0.79-0.14,1.1-0.43l5.71-5.33l0.92,0.93c0.38,0.38,0.98,0.38,1.36,0
			l4.2-4.2c0.38-0.38,0.38-0.98,0-1.36l-4.2-4.2c-0.38-0.38-0.98-0.38-1.36,0l-4.2,4.21c-0.38,0.38-0.38,0.98,0,1.36l1,1l-5.63,5.25
			c-0.65,0.61-0.68,1.62-0.08,2.27C22.39,26.19,22.82,26.35,23.24,26.35L23.24,26.35z M23.24,26.35"/>
	</g>
</g>
</svg>
