<?xml version="1.0" encoding="utf-8"?>
<!-- Generator: Adobe Illustrator 23.0.0, SVG Export Plug-In . SVG Version: 6.00 Build 0)  -->
<svg version="1.1" id="图层_1" xmlns="http://www.w3.org/2000/svg" xmlns:xlink="http://www.w3.org/1999/xlink" x="0px" y="0px"
	 width="60px" height="60px" viewBox="0 0 60 60" style="enable-background:new 0 0 60 60;" xml:space="preserve">
<style type="text/css">
	.st0{clip-path:url(#SVGID_2_);}
	.st1{fill:#1A73E8;}
	.st2{fill:url(#XMLID_2_);}
	.st3{clip-path:url(#SVGID_4_);fill:#FFFFFF;}
</style>
<g>
	<defs>
		<rect id="SVGID_1_" x="1" width="59" height="60"/>
	</defs>
	<clipPath id="SVGID_2_">
		<use xlink:href="#SVGID_1_"  style="overflow:visible;"/>
	</clipPath>
	<g class="st0">
		<circle id="XMLID_273_" class="st1" cx="29.93" cy="29.92" r="28.5"/>
		<linearGradient id="XMLID_2_" gradientUnits="userSpaceOnUse" x1="17.118" y1="17.1103" x2="50.0781" y2="50.0704">
			<stop  offset="0" style="stop-color:#015AB5"/>
			<stop  offset="1" style="stop-color:#3B91E9"/>
		</linearGradient>
		<path id="XMLID_272_" class="st2" d="M58.34,32.12L42.95,15.92l-1.9,2l-3.46-2.57l-0.41,2.7l-3.13-0.13l-6.5,0.13l-4.58-2.67
			l-1.05,1.79l-5,0.13l-0.77,25.88l17.02,15.06C46.67,56.7,57.3,45.75,58.34,32.12z"/>
		<g>
			<g>
				<defs>
					<rect id="SVGID_3_" x="15" y="14.97" width="29.87" height="29.9"/>
				</defs>
				<clipPath id="SVGID_4_">
					<use xlink:href="#SVGID_3_"  style="overflow:visible;"/>
				</clipPath>
				<path class="st3" d="M19.26,14.99h21.32c2.35,0,4.26,1.91,4.26,4.26v21.32c0,2.35-1.91,4.26-4.26,4.26H19.26
					c-2.35,0-4.26-1.91-4.26-4.26V19.25C14.99,16.9,16.9,14.99,19.26,14.99L19.26,14.99z M22.45,20.59c-1.03,0-1.87,0.84-1.87,1.87
					c0,1.03,0.84,1.87,1.87,1.87c1.03,0,1.87-0.84,1.87-1.87C24.32,21.42,23.49,20.59,22.45,20.59L22.45,20.59z M29.92,20.59
					c-1.03,0-1.87,0.84-1.87,1.87c0,1.03,0.84,1.87,1.87,1.87c1.03,0,1.87-0.84,1.87-1.87C31.78,21.42,30.95,20.59,29.92,20.59
					L29.92,20.59z M37.38,20.59c-1.03,0-1.87,0.84-1.87,1.87c0,1.03,0.84,1.87,1.87,1.87c1.03,0,1.87-0.84,1.87-1.87
					C39.24,21.42,38.41,20.59,37.38,20.59L37.38,20.59z M22.45,28.05c-1.03,0-1.87,0.84-1.87,1.87c0,1.03,0.84,1.87,1.87,1.87h14.92
					c1.03,0,1.87-0.84,1.87-1.87c0-1.03-0.84-1.87-1.87-1.87H22.45z M22.45,35.51c-1.03,0-1.87,0.84-1.87,1.87
					c0,1.03,0.84,1.87,1.87,1.87h11.19c1.03,0,1.87-0.84,1.87-1.87c0-1.03-0.84-1.87-1.87-1.87H22.45z M22.45,35.51"/>
			</g>
		</g>
	</g>
</g>
</svg>
