<?xml version="1.0" encoding="utf-8"?>
<!-- Generator: Adobe Illustrator 23.0.0, SVG Export Plug-In . SVG Version: 6.00 Build 0)  -->
<svg version="1.1" id="图层_1" xmlns="http://www.w3.org/2000/svg" xmlns:xlink="http://www.w3.org/1999/xlink" x="0px" y="0px"
	 width="60px" height="60px" viewBox="0 0 60 60" style="enable-background:new 0 0 60 60;" xml:space="preserve">
<style type="text/css">
	.st0{fill:#439EFC;}
	.st1{fill:#FFFFFF;}
</style>
<path id="XMLID_240_" class="st0" d="M42.4,45.8H16.9c-9,0-16.3-7.3-16.3-16.3v0c0-9,7.3-16.3,16.3-16.3h25.5
	c9,0,16.3,7.3,16.3,16.3v0C58.8,38.5,51.5,45.8,42.4,45.8z"/>
<g>
	<path class="st1" d="M25.8,22.8v-1.3h7.8v1.3L30,23.2h-0.7L25.8,22.8z M30,35.8l3.6,0.4v1.3h-7.8v-1.3l3.5-0.4H30z M27.6,29
		c0-2.5,0-5-0.1-7.5h4.2c-0.1,2.4-0.1,5-0.1,7.5v0.9c0,2.5,0,5,0.1,7.5h-4.2c0.1-2.4,0.1-5,0.1-7.5V29z"/>
</g>
</svg>
