<?xml version="1.0" encoding="utf-8"?>
<!-- Generator: Adobe Illustrator 19.0.0, SVG Export Plug-In . SVG Version: 6.00 Build 0)  -->
<svg version="1.1" id="图层_1" xmlns="http://www.w3.org/2000/svg" xmlns:xlink="http://www.w3.org/1999/xlink" x="0px" y="0px"
	 width="60px" height="60px" viewBox="0 0 60 60" style="enable-background:new 0 0 60 60;" xml:space="preserve">
<style type="text/css">
	.st0{fill:#8C9096;}
</style>
<path id="XMLID_167_" class="st0" d="M30.5,53.8c-10.8,0-20.2-7.3-23.1-17.8h-5L2,35.7c-0.4-0.4-1.5-1.4-0.3-2.9l6.8-6.8
	c0.4-0.4,1-0.7,1.7-0.7c0.6,0,1.2,0.2,1.7,0.7l6.7,6.7c0.5,0.5,0.7,1.2,0.5,1.8c-0.2,0.6-0.5,1-0.8,1.3l-0.3,0.3H13
	c2.6,7.3,9.6,12.3,17.5,12.3c6.2,0,12-3.2,15.5-8.4l0.4-0.7l5.2,2.2l-0.6,1C46.5,49.6,38.9,53.8,30.5,53.8z M51.2,36.1
	c-0.6,0-1.2-0.2-1.7-0.7l-6.6-6.8c-1.3-1.6-0.2-2.6,0.2-3l0.4-0.4h5.2c-2-8.2-9.4-14-18-14c-6.8,0-13.1,3.7-16.4,9.6L14,21.6
	l-5.2-1.9l0.5-1c4-8,12.2-13,21.3-13c11.5,0,21.3,8.2,23.5,19.5h4.6l0.3,0.3c1,1,1.2,2.1,0.7,3l-0.1,0.1l-6.8,6.8
	C52.4,35.9,51.8,36.1,51.2,36.1z"/>
</svg>
