<?xml version="1.0" encoding="utf-8"?>
<!-- Generator: Adobe Illustrator 19.0.0, SVG Export Plug-In . SVG Version: 6.00 Build 0)  -->
<svg version="1.1" id="图层_1" xmlns="http://www.w3.org/2000/svg" xmlns:xlink="http://www.w3.org/1999/xlink" x="0px" y="0px"
	 width="60px" height="60px" viewBox="0 0 60 60" style="enable-background:new 0 0 60 60;" xml:space="preserve">
<style type="text/css">
	.st0{clip-path:url(#XMLID_41_);fill:#439EFC;}
</style>
<g id="XMLID_74_">
	<g id="XMLID_75_">
		<defs>
			<rect id="XMLID_62_" x="1.5" y="1.6" width="56.6" height="56.8"/>
		</defs>
		<clipPath id="XMLID_41_">
			<use xlink:href="#XMLID_62_"  style="overflow:visible;"/>
		</clipPath>
		<path id="XMLID_77_" class="st0" d="M57.5,10.7c0.3,0.4,0.5,0.8,0.6,1.3c0,0.5,0.1,0.9,0.1,1.1v37.4c0,2.2-0.7,4-2.2,5.5
			c-1.5,1.5-3.5,2.2-5.9,2.2H9.7c-2.5,0-4.5-0.6-6-1.9c-1.5-1.3-2.2-3.2-2.2-5.7V10c0-2.5,0.7-4.5,2.2-6c1.5-1.5,3.4-2.3,6-2.3h36.9
			c0.5,0,0.9,0.1,1.4,0.2c0.5,0.1,0.8,0.3,1,0.5L57.5,10.7z M45.1,8.2c-0.1-1.4-0.9-2.2-2.3-2.2H12.4c-0.7,0-1.3,0.1-1.7,0.6
			c-0.4,0.4-0.6,0.9-0.6,1.5v11.4c0,0.5,0.1,0.9,0.3,1.4c0.2,0.5,0.5,0.9,0.9,1.3c0.4,0.4,0.8,0.7,1.3,1c0.5,0.3,1,0.4,1.6,0.4h26.5
			c1.3,0,2.3-0.4,3.2-1.1c0.9-0.7,1.3-1.9,1.3-3.3V8.2z M45.1,39.6c0-2-1-3-3.1-3.1H13.3c-1.1,0-1.9,0.3-2.4,0.8
			c-0.5,0.6-0.8,1.3-0.8,2.2v10.2h35V39.6z M45.1,39.6"/>
	</g>
</g>
</svg>
