<?xml version="1.0" encoding="utf-8"?>
<!-- Generator: Adobe Illustrator 19.0.0, SVG Export Plug-In . SVG Version: 6.00 Build 0)  -->
<svg version="1.1" id="图层_1" xmlns="http://www.w3.org/2000/svg" xmlns:xlink="http://www.w3.org/1999/xlink" x="0px" y="0px"
	 width="60px" height="60px" viewBox="0 0 60 60" style="enable-background:new 0 0 60 60;" xml:space="preserve">
<style type="text/css">
	.st0{fill:#8C9096;}
</style>
<path id="XMLID_180_" class="st0" d="M54.8,59.7c-0.7,0-1.4-0.3-1.9-0.8L37.4,43.5c-3.9,2.7-8.4,4.1-13.2,4.1
	C11.4,47.6,1,37.2,1,24.4S11.4,1.2,24.2,1.2s23.2,10.4,23.2,23.2c0,5.7-2.1,11.2-5.9,15.5l15.2,15.2c1.1,1.1,1.1,2.8,0,3.9
	C56.2,59.5,55.5,59.7,54.8,59.7z M24.2,7.1c-9.8,0-17.8,8-17.8,17.8c0,9.8,8,17.8,17.8,17.8c9.8,0,17.8-8,17.8-17.8
	C42,15,34,7.1,24.2,7.1z"/>
</svg>
