<?xml version="1.0" encoding="utf-8"?>
<!-- Generator: Adobe Illustrator 19.0.0, SVG Export Plug-In . SVG Version: 6.00 Build 0)  -->
<svg version="1.1" id="图层_1" xmlns="http://www.w3.org/2000/svg" xmlns:xlink="http://www.w3.org/1999/xlink" x="0px" y="0px"
	 width="60px" height="60px" viewBox="-267 390.9 60 60" style="enable-background:new -267 390.9 60 60;" xml:space="preserve">
<style type="text/css">
	.st0{clip-path:url(#XMLID_2_);fill:#8C9096;}
</style>
<g id="XMLID_247_">
	<g id="XMLID_248_">
		<defs>
			<rect id="XMLID_242_" x="-267" y="394.2" width="60" height="55"/>
		</defs>
		<clipPath id="XMLID_2_">
			<use xlink:href="#XMLID_242_"  style="overflow:visible;"/>
		</clipPath>
		<path id="XMLID_250_" class="st0" d="M-241.3,449.1c-2.4,0-4.3-1.9-4.3-4.3v-21.5l-20.3-21.9c-1.2-1.2-1.5-3.1-0.8-4.6
			c0.7-1.6,2.2-2.6,3.9-2.6h0l51.4,0.4c1.7,0,3.3,1,3.9,2.6c0.7,1.6,0.3,3.4-0.8,4.6l-20.2,21.5v17.2c0,0.7-0.4,1.4-1,1.8l-9.8,6.2
			c-0.1,0-0.1,0.1-0.2,0.1C-240,448.9-240.6,449.1-241.3,449.1L-241.3,449.1z M-262.7,398.5L-262.7,398.5l20.9,22.5
			c0.4,0.4,0.6,0.9,0.6,1.5v22.3l8.6-5.4v-16.8c0-0.5,0.2-1.1,0.6-1.5l20.8-22.1l0,0h0L-262.7,398.5z M-262.7,398.5"/>
	</g>
</g>
</svg>
