<svg xmlns="http://www.w3.org/2000/svg" width="10" height="10.007" viewBox="0 0 10 10.007">
  <defs>
    <style>
      .cls-1 {
        fill: #4eaf54;
      }
    </style>
  </defs>
  <g id="组_63" data-name="组 63" transform="translate(-15.773 -16)">
    <g id="组_62" data-name="组 62" transform="translate(15.773 16)">
      <path id="路径_74" data-name="路径 74" class="cls-1" d="M25.427,17.708l-1.374-1.374a1.18,1.18,0,0,0-1.644,0l-6.346,6.346a.748.748,0,0,0-.213.522l-.077,2.012v.058a.793.793,0,0,0,.252.542.73.73,0,0,0,.522.194h.039l1.973-.077a.723.723,0,0,0,.5-.232l6.346-6.345a1.129,1.129,0,0,0,.019-1.644Zm-8.474,5.185,5.069-5.069,1.915,1.915-5.069,5.069Zm-.426,2.36.058-1.606,1.528,1.529Zm8.358-6.462-.406.406-1.915-1.915.406-.406a.375.375,0,0,1,.542,0l1.374,1.374a.374.374,0,0,1,0,.542Zm0,0" transform="translate(-15.773 -16)"/>
    </g>
  </g>
</svg>
