<svg xmlns="http://www.w3.org/2000/svg" width="8.433" height="9.9" viewBox="0 0 8.433 9.9">
  <defs>
    <style>
      .cls-1 {
        fill: #4baefd;
      }
    </style>
  </defs>
  <g id="组_627" data-name="组 627" transform="translate(-13.556 -12)">
    <path id="路径_791" data-name="路径 791" class="cls-1" d="M20.523,12h-5.5a1.471,1.471,0,0,0-1.467,1.467v6.967A1.471,1.471,0,0,0,15.023,21.9h4.052a1.517,1.517,0,0,0,1.045-.422l1.448-1.448a1.454,1.454,0,0,0,.422-1.045V13.467A1.471,1.471,0,0,0,20.523,12Zm-6.233,8.433V13.467a.735.735,0,0,1,.733-.733h5.5a.736.736,0,0,1,.733.733v5.317h-1.1a1.471,1.471,0,0,0-1.467,1.467v.917H15.023a.735.735,0,0,1-.733-.733Zm5.3.513a.994.994,0,0,1-.165.128V20.25a.735.735,0,0,1,.733-.733h.862Zm0,0" transform="translate(0 0)"/>
    <path id="路径_792" data-name="路径 792" class="cls-1" d="M22.19,21.688h3.3a.367.367,0,1,0,0-.733h-3.3a.367.367,0,1,0,0,.733Zm1.467,2.933H22.19a.367.367,0,1,0,0,.733h1.467a.367.367,0,0,0,0-.733Zm-1.467-1.1h3.3a.367.367,0,1,0,0-.733h-3.3a.367.367,0,1,0,0,.733Zm0,0" transform="translate(-6.067 -6.572)"/>
  </g>
</svg>
