<svg xmlns="http://www.w3.org/2000/svg" width="20" height="20" viewBox="0 0 20 20">
  <defs>
    <style>
      .cls-1 {
        fill: #f66;
      }

      .cls-2 {
        fill: #fff;
      }
    </style>
  </defs>
  <g id="组_667" data-name="组 667" transform="translate(-1866 -471)">
    <circle id="椭圆_151" data-name="椭圆 151" class="cls-1" cx="10" cy="10" r="10" transform="translate(1866 471)"/>
    <g id="lajixiang" transform="translate(1744.524 444.78)">
      <path id="路径_54" data-name="路径 54" class="cls-2" d="M133.747,41.942H129.2a1.13,1.13,0,0,1-1.125-1.077l-.335-7.13a.359.359,0,0,1,.359-.383.346.346,0,0,1,.383.359l.335,7.13a.373.373,0,0,0,.383.359h4.546a.409.409,0,0,0,.383-.359l.335-7.13a.371.371,0,0,1,.742.024l-.335,7.13A1.113,1.113,0,0,1,133.747,41.942Zm1.842-9.332h-8.231a.383.383,0,1,1,0-.766h8.231a.383.383,0,0,1,0,.766Zm-3.374-1.125h-1.507a.383.383,0,1,1,0-.766h1.507a.383.383,0,1,1,0,.766Z" transform="translate(0 0)"/>
      <path id="路径_55" data-name="路径 55" class="cls-2" d="M416.127,357.113a.378.378,0,0,1-.383-.383v-4.092a.383.383,0,1,1,.766,0v4.115A.409.409,0,0,1,416.127,357.113Zm1.483,0a.378.378,0,0,1-.383-.383v-4.092a.383.383,0,0,1,.766,0v4.115A.373.373,0,0,1,417.61,357.113Z" transform="translate(-285.394 -317.779)"/>
    </g>
  </g>
</svg>
