<?xml version="1.0" encoding="utf-8"?>
<!-- Generator: Adobe Illustrator 23.0.0, SVG Export Plug-In . SVG Version: 6.00 Build 0)  -->
<svg version="1.1" id="图层_1" xmlns="http://www.w3.org/2000/svg" xmlns:xlink="http://www.w3.org/1999/xlink" x="0px" y="0px"
	 width="60px" height="60px" viewBox="0 0 60 60" style="enable-background:new 0 0 60 60;" xml:space="preserve">
<style type="text/css">
	.st0{fill:#1A73E8;}
	.st1{fill:#FFFFFF;}
</style>
<g id="XMLID_284_">
	<path class="st0" d="M42.6,47H17.3C8.4,47,1.1,39.8,1.1,30.8v0c0-8.9,7.2-16.2,16.2-16.2h25.3c8.9,0,16.2,7.2,16.2,16.2v0
		C58.8,39.8,51.5,47,42.6,47z"/>
</g>
<g>
	<path class="st1" d="M29.1,38H17.7V23.6h11.1v2.7H21v3.1h7.3v2.7H21v3.4h8.1V38z"/>
	<path class="st1" d="M36.4,33H34v5h-3.3V23.6h6c3.5,0.1,5.3,1.6,5.4,4.5C42.2,31.4,40.3,33,36.4,33z M36.1,26.1H34v4.4h2.2
		c1.7,0,2.6-0.8,2.6-2.2C38.7,26.9,37.8,26.2,36.1,26.1z"/>
</g>
</svg>
