<?xml version="1.0" encoding="utf-8"?>
<!-- Generator: Adobe Illustrator 19.0.0, SVG Export Plug-In . SVG Version: 6.00 Build 0)  -->
<svg version="1.1" id="图层_1" xmlns="http://www.w3.org/2000/svg" xmlns:xlink="http://www.w3.org/1999/xlink" x="0px" y="0px"
	 width="60px" height="60px" viewBox="0 0 60 60" style="enable-background:new 0 0 60 60;" xml:space="preserve">
<style type="text/css">
	.st0{fill:#1A73E8;}
</style>
<path id="XMLID_64_" class="st0" d="M29.6,53.9c-10.4,0-19.5-7-22.3-17.1H2.4L2,36.3c-0.4-0.4-1.4-1.4-0.3-2.8l6.6-6.6
	c0.4-0.4,1-0.7,1.6-0.7c0.6,0,1.2,0.2,1.6,0.7l6.5,6.5c0.5,0.5,0.6,1.1,0.5,1.8c-0.2,0.5-0.5,1-0.8,1.3l-0.3,0.3h-4.8
	c2.5,7,9.3,11.8,16.9,11.8c6,0,11.6-3,15-8.2l0.4-0.6l5,2.1l-0.6,0.9C45.1,49.7,37.7,53.9,29.6,53.9z M49.5,36.8
	c-0.6,0-1.2-0.2-1.6-0.7l-6.3-6.5c-1.2-1.5-0.2-2.5,0.2-2.9l0.4-0.4h5.1c-1.9-7.9-9-13.6-17.4-13.6c-6.5,0-12.6,3.6-15.8,9.3
	l-0.4,0.7l-5-1.8L9.2,20c3.9-7.7,11.7-12.5,20.5-12.5c11.1,0,20.6,7.9,22.7,18.9h4.4l0.3,0.3c0.9,0.9,1.2,2.1,0.6,2.9l-0.1,0.1
	l-6.6,6.6C50.7,36.5,50.1,36.8,49.5,36.8z"/>
</svg>
