<svg xmlns="http://www.w3.org/2000/svg" width="12.999" height="13.386" viewBox="0 0 12.999 13.386">
  <defs>
    <style>
      .cls-1 {
        fill: #b2babe;
      }
    </style>
  </defs>
  <g id="组_576" data-name="组 576" transform="translate(-12.498 -13.028)">
    <path id="路径_777" data-name="路径 777" class="cls-1" d="M21.677,17.737h3.468a.573.573,0,0,0,.571-.571V14.53a.573.573,0,0,0-.571-.571H21.677a.573.573,0,0,0-.571.571v2.635a.573.573,0,0,0,.571.572Zm0,0" transform="translate(-5.305 -0.574)"/>
    <path id="路径_778" data-name="路径 778" class="cls-1" d="M22.94,13.028H21.691V17.45a.338.338,0,0,1-.338.337H14.772a.338.338,0,0,1-.338-.339l.027-4.42H13.414a.916.916,0,0,0-.916.916V25.5a.916.916,0,0,0,.916.916H24.581A.916.916,0,0,0,25.5,25.5V15.913ZM23.8,24.616a.491.491,0,0,1-.489.489H14.891a.491.491,0,0,1-.489-.489v-5.03a.491.491,0,0,1,.489-.489h8.423a.491.491,0,0,1,.489.489Zm0,0" transform="translate(0)"/>
    <path id="路径_779" data-name="路径 779" class="cls-1" d="M26.857,33.443H20.482a.441.441,0,1,0,0,.881h6.376a.441.441,0,0,0,0-.881Zm0,2.29H20.482a.441.441,0,0,0,0,.881h6.376a.441.441,0,0,0,0-.881Zm0,0" transform="translate(-4.649 -12.581)"/>
  </g>
</svg>
