<?xml version="1.0" encoding="utf-8"?>
<!-- Generator: Adobe Illustrator 19.0.0, SVG Export Plug-In . SVG Version: 6.00 Build 0)  -->
<svg version="1.1" id="图层_1" xmlns="http://www.w3.org/2000/svg" xmlns:xlink="http://www.w3.org/1999/xlink" x="0px" y="0px"
	 width="60px" height="60px" viewBox="0 0 60 60" style="enable-background:new 0 0 60 60;" xml:space="preserve">
<style type="text/css">
	.st0{clip-path:url(#XMLID_41_);fill:#1A73E8;}
</style>
<g id="XMLID_83_">
	<g id="XMLID_84_">
		<defs>
			<rect id="XMLID_73_" x="2" y="7.7" width="55.9" height="45.5"/>
		</defs>
		<clipPath id="XMLID_41_">
			<use xlink:href="#XMLID_73_"  style="overflow:visible;"/>
		</clipPath>
		<path id="XMLID_86_" class="st0" d="M2,7.8v45.4h55.9V7.8H2z M54.4,49.7H5.5V11.3h48.9V49.7z M40.4,20c0,2.9,2.3,5.2,5.2,5.2
			c2.9,0,5.2-2.3,5.2-5.2c0-2.9-2.3-5.2-5.2-5.2C42.8,14.7,40.4,17.1,40.4,20L40.4,20z M50.9,46.2H9l10.5-27.9l14,17.5l7-5.2
			L50.9,46.2z M50.9,46.2"/>
	</g>
</g>
</svg>
