<svg xmlns="http://www.w3.org/2000/svg" width="15" height="14.999" viewBox="0 0 15 14.999">
  <defs>
    <style>
      .cls-1 {
        fill: #b2babe;
      }
    </style>
  </defs>
  <g id="组_573" data-name="组 573" transform="translate(-13.013 -13)">
    <g id="组_571" data-name="组 571" transform="translate(13.013 13)">
      <path id="路径_774" data-name="路径 774" class="cls-1" d="M27.083,19.079l-1.2-.267a5.482,5.482,0,0,0-.357-.863l.651-1.084a1.077,1.077,0,0,0,0-1.326l-.664-.663a.915.915,0,0,0-.661-.255,1.251,1.251,0,0,0-.7.214l-1.055.672a5.647,5.647,0,0,0-.857-.36l-.27-1.218a1.1,1.1,0,0,0-.989-.93h-.937c-.518,0-.835.491-.937.938l-.3,1.2a5.588,5.588,0,0,0-.913.384l-1.082-.688a1.251,1.251,0,0,0-.7-.214.916.916,0,0,0-.661.255l-.663.663a1.076,1.076,0,0,0,0,1.326l.684,1.141a5.678,5.678,0,0,0-.33.806l-1.2.267a1.1,1.1,0,0,0-.93.989v.937c0,.518.491.835.938.938l1.218.3a5.554,5.554,0,0,0,.308.747l-.685,1.143a1.076,1.076,0,0,0,0,1.326l.663.663a.917.917,0,0,0,.661.256,1.249,1.249,0,0,0,.7-.214l1.084-.692a5.564,5.564,0,0,0,.918.387l.3,1.2c.1.447.42.938.938.938h.938a1.1,1.1,0,0,0,.989-.93l.27-1.221a5.586,5.586,0,0,0,.847-.355l1.057.674a1.251,1.251,0,0,0,.7.214.917.917,0,0,0,.661-.256l.664-.663a1.076,1.076,0,0,0,0-1.326l-.652-1.086a5.715,5.715,0,0,0,.336-.8l1.218-.3c.446-.1.938-.42.938-.937v-.937a1.1,1.1,0,0,0-.93-.989Zm-6.556,3.688a2.261,2.261,0,1,1,2.267-2.262,2.268,2.268,0,0,1-2.267,2.262Zm0,0" transform="translate(-13.013 -13)"/>
    </g>
  </g>
</svg>
