<?xml version="1.0" encoding="utf-8"?>
<!-- Generator: Adobe Illustrator 19.0.0, SVG Export Plug-In . SVG Version: 6.00 Build 0)  -->
<svg version="1.1" id="图层_1" xmlns="http://www.w3.org/2000/svg" xmlns:xlink="http://www.w3.org/1999/xlink" x="0px" y="0px"
	 width="60px" height="60px" viewBox="0 0 60 60" style="enable-background:new 0 0 60 60;" xml:space="preserve">
<style type="text/css">
	.st0{clip-path:url(#XMLID_48_);fill:#FFFFFF;}
</style>
<g id="XMLID_40_">
	<g id="XMLID_41_">
		<defs>
			<rect id="XMLID_42_" x="0.8" y="1.5" width="57.9" height="57.9"/>
		</defs>
		<clipPath id="XMLID_48_">
			<use xlink:href="#XMLID_42_"  style="overflow:visible;"/>
		</clipPath>
		<path id="XMLID_57_" class="st0" d="M53.9,30.5c0-3.3,1.8-6.1,4.7-7.2c-1.4-5.1-4.3-9.8-8-13.4c-2.5,1.8-6.1,2.2-9,0.7
			c-2.9-1.8-4.3-4.7-4-8c-2.5-0.7-5.4-1.1-8-1.1c-2.9,0-5.4,0.4-8,1.1c0.4,2.9-1.1,6.1-4,8c-2.9,1.8-6.5,1.4-9-0.7
			c-3.6,3.6-6.5,8.3-8,13.4c2.9,1.1,4.7,4,4.7,7.2c0,3.3-1.8,6.1-4.7,7.2c1.4,5.1,4.3,9.8,8,13.4c2.5-1.8,6.1-2.2,9-0.7
			c2.9,1.8,4.3,4.7,4,8c2.5,0.7,5.4,1.1,8,1.1c2.9,0,5.4-0.4,8-1.1c-0.4-2.9,1.1-6.1,4-8c2.9-1.8,6.5-1.4,9,0.7
			c3.6-3.6,6.5-8.3,8-13.4C55.7,36.6,53.9,33.8,53.9,30.5L53.9,30.5z M29.7,42.4c-6.9,0-12.3-5.4-12.3-11.9
			c0-6.5,5.4-11.9,12.3-11.9C36.6,18.6,42,24,42,30.5C42,37,36.6,42.4,29.7,42.4L29.7,42.4z M29.7,37.7c4,0,7.2-3.2,7.2-7.2
			c0-4-3.2-7.2-7.2-7.2c-4,0-7.2,3.2-7.2,7.2C22.5,34.5,25.7,37.7,29.7,37.7L29.7,37.7z M29.7,37.7"/>
	</g>
</g>
</svg>
