<?xml version="1.0" encoding="utf-8"?>
<!-- Generator: Adobe Illustrator 19.0.0, SVG Export Plug-In . SVG Version: 6.00 Build 0)  -->
<svg version="1.1" id="图层_1" xmlns="http://www.w3.org/2000/svg" xmlns:xlink="http://www.w3.org/1999/xlink" x="0px" y="0px"
	 width="60px" height="60px" viewBox="-267 390.9 60 60" style="enable-background:new -267 390.9 60 60;" xml:space="preserve">
<style type="text/css">
	.st0{fill:#6EB5FF;}
</style>
<path id="XMLID_1342_" class="st0" d="M-216.9,413.1c-0.9,0-1.8,0.1-2.6,0.2c0-0.2,0-0.4,0.1-0.7c0.2-5.1-3.7-9.3-8.8-9.5
	c-2.5-0.1-4.8,0.8-6.5,2.4c-1.8-2-4.4-3.2-7.3-3.3c-5.1-0.2-9.5,3.2-10.7,7.9c-6.9,0.1-12.7,5.6-12.9,12.7
	c-0.3,7.3,5.4,13.4,12.6,13.7c3.8,0.2,7.3-1.3,9.8-3.8c2.3,3.5,6.1,5.8,10.5,6c5.2,0.2,9.9-2.6,12.2-7c0.9,0.3,1.8,0.5,2.8,0.5
	c5.3,0.2,9.8-3.9,10-9.2C-207.4,417.8-211.6,413.3-216.9,413.1z"/>
</svg>
