<?xml version="1.0" encoding="utf-8"?>
<!-- Generator: Adobe Illustrator 23.0.0, SVG Export Plug-In . SVG Version: 6.00 Build 0)  -->
<svg version="1.1" id="图层_1" xmlns="http://www.w3.org/2000/svg" xmlns:xlink="http://www.w3.org/1999/xlink" x="0px" y="0px"
	 width="60px" height="60px" viewBox="0 0 60 60" style="enable-background:new 0 0 60 60;" xml:space="preserve">
<style type="text/css">
	.st0{fill:#B9BFC6;}
	.st1{fill:#FFFFFF;}
</style>
<g id="XMLID_233_">
	<path class="st0" d="M42.9,46.3H17.7c-8.9,0-16.1-7.2-16.1-16.1v0C1.6,21.3,8.8,14,17.7,14h25.2C51.8,14,59,21.3,59,30.2v0
		C59,39.1,51.8,46.3,42.9,46.3z"/>
</g>
<g>
	<path class="st1" d="M29.8,37.4h-4.1l-3.5-5.6h-1.9v5.6H17V23h6.6c3.5,0.1,5.4,1.5,5.5,4.2c0,2.4-1.1,3.9-3.5,4.4L29.8,37.4z
		 M23,25.5h-2.8v3.9H23c1.7,0,2.6-0.6,2.5-1.9C25.6,26.1,24.8,25.4,23,25.5z"/>
	<path class="st1" d="M43.6,37.4h-4.1L36,31.7h-1.9v5.6h-3.3V23h6.6c3.5,0.1,5.4,1.5,5.5,4.2c0,2.4-1.1,3.9-3.5,4.4L43.6,37.4z
		 M36.9,25.5h-2.8v3.9h2.8c1.7,0,2.6-0.6,2.5-1.9C39.5,26.1,38.6,25.4,36.9,25.5z"/>
</g>
</svg>
