<?xml version="1.0" encoding="utf-8"?>
<!-- Generator: Adobe Illustrator 19.0.0, SVG Export Plug-In . SVG Version: 6.00 Build 0)  -->
<svg version="1.1" id="图层_1" xmlns="http://www.w3.org/2000/svg" xmlns:xlink="http://www.w3.org/1999/xlink" x="0px" y="0px"
	 width="60px" height="60px" viewBox="0 0 60 60" style="enable-background:new 0 0 60 60;" xml:space="preserve">
<style type="text/css">
	.st0{clip-path:url(#XMLID_41_);fill:#8C9096;}
</style>
<g id="XMLID_98_">
	<g id="XMLID_99_">
		<defs>
			<rect id="XMLID_100_" x="13.1" y="1.3" width="36" height="57.5"/>
		</defs>
		<clipPath id="XMLID_41_">
			<use xlink:href="#XMLID_100_"  style="overflow:visible;"/>
		</clipPath>
		<path id="XMLID_101_" class="st0" d="M49,30.1c0,0.3-0.1,0.7-0.2,1L37.2,57.4c-0.5,1.2-2,1.8-3.2,1.3c-1.2-0.5-1.8-2-1.3-3.2
			l11.2-25.3L32.7,4.8c-0.5-1.2,0-2.7,1.3-3.2c1.2-0.5,2.7,0,3.2,1.3l11.6,26.3C49,29.4,49,29.8,49,30.1L49,30.1z M29.7,30.1
			c0,0.3-0.1,0.7-0.2,1L17.9,57.4c-0.5,1.2-2,1.8-3.2,1.3c-1.2-0.5-1.8-2-1.3-3.2l11.2-25.3L13.4,4.8c-0.5-1.2,0-2.7,1.3-3.2
			c1.2-0.5,2.7,0,3.2,1.3l11.6,26.3C29.6,29.4,29.7,29.8,29.7,30.1L29.7,30.1z M29.7,30.1"/>
	</g>
</g>
</svg>
