<?xml version="1.0" encoding="utf-8"?>
<!-- Generator: Adobe Illustrator 23.0.0, SVG Export Plug-In . SVG Version: 6.00 Build 0)  -->
<svg version="1.1" id="图层_1" xmlns="http://www.w3.org/2000/svg" xmlns:xlink="http://www.w3.org/1999/xlink" x="0px" y="0px"
	 width="60px" height="60px" viewBox="0 0 60 60" style="enable-background:new 0 0 60 60;" xml:space="preserve">
<style type="text/css">
	.st0{fill:#1A73E8;}
	.st1{fill:#FFFFFF;}
</style>
<g id="XMLID_285_">
	<path class="st0" d="M43.2,45.6H17c-8.7,0-15.8-7.1-15.8-15.8v-0.9c0-8.7,7.1-15.8,15.8-15.8h26.2c8.7,0,15.8,7.1,15.8,15.8v0.9
		C59,38.5,51.9,45.6,43.2,45.6z"/>
</g>
<g>
	<path class="st1" d="M29,36.6h-3.4L20,27.5c-0.3-0.4-0.5-0.9-0.8-1.3c0,0.6,0.1,1.4,0.1,2.4v8h-3.1V22.1h3.6l5.5,8.9
		c0,0.1,0.1,0.2,0.2,0.3c0.3,0.5,0.5,0.9,0.6,1.1v-0.1c0-0.5-0.1-1.2-0.1-2.2v-8.1H29V36.6z"/>
	<path class="st1" d="M43.9,26.3L40.7,27c-0.4-1.5-1.4-2.3-3-2.4c-2.2,0.1-3.4,1.7-3.6,4.7c0.1,3,1.3,4.6,3.6,4.8
		c1.8,0,2.9-1.1,3.2-3.2l3.2,1c-0.7,3.3-2.9,4.9-6.3,4.9c-4.5-0.2-6.8-2.7-7-7.5c0.2-4.7,2.6-7.2,7-7.4C40.9,22,42.9,23.5,43.9,26.3
		z"/>
</g>
</svg>
