<?xml version="1.0" encoding="utf-8"?>
<!-- Generator: Adobe Illustrator 23.0.0, SVG Export Plug-In . SVG Version: 6.00 Build 0)  -->
<svg version="1.1" id="图层_1" xmlns="http://www.w3.org/2000/svg" xmlns:xlink="http://www.w3.org/1999/xlink" x="0px" y="0px"
	 width="60px" height="60px" viewBox="0 0 60 60" style="enable-background:new 0 0 60 60;" xml:space="preserve">
<style type="text/css">
	.st0{fill:#1A73E8;}
	.st1{fill:url(#SVGID_1_);}
	.st2{clip-path:url(#SVGID_3_);fill:#FFFFFF;}
</style>
<circle id="XMLID_238_" class="st0" cx="30.09" cy="29.78" r="28.5"/>
<linearGradient id="SVGID_1_" gradientUnits="userSpaceOnUse" x1="22.4792" y1="24.0642" x2="49.2952" y2="50.8802">
	<stop  offset="0" style="stop-color:#015AB5"/>
	<stop  offset="1" style="stop-color:#3B91E9"/>
</linearGradient>
<path class="st1" d="M22.61,57.28c2.38,0.65,4.89,1,7.48,1c15.74,0,28.5-12.76,28.5-28.5c0-0.75-0.04-1.49-0.1-2.23l-8.61-9.16
	L33.65,34.1l-1.8-0.29l-3.86-11.09l-5.81,3.7l-8.59,6.55l-4.76,5.52L22.61,57.28z"/>
<g>
	<g>
		<defs>
			<rect id="SVGID_2_" x="8.17" y="18.02" width="43.84" height="23.52"/>
		</defs>
		<clipPath id="SVGID_3_">
			<use xlink:href="#SVGID_2_"  style="overflow:visible;"/>
		</clipPath>
		<path class="st2" d="M50.13,18.52V18.5l-0.24-0.12c-0.87-0.43-1.85-0.47-2.76-0.11c-0.9,0.36-1.62,1.06-2.03,2
			c-0.38,0.89-0.43,1.87-0.14,2.8L33.65,34.1c-0.56-0.26-1.18-0.36-1.8-0.29l-3.23-5.91c0.14-0.21,0.25-0.4,0.34-0.61
			c0.4-0.93,0.44-1.98,0.11-2.94c-0.33-0.96-1-1.73-1.87-2.17c-0.87-0.43-1.85-0.47-2.76-0.11c-0.9,0.36-1.62,1.06-2.03,2
			c-0.31,0.73-0.4,1.55-0.25,2.35l-8.6,6.55c-0.1-0.07-0.2-0.12-0.3-0.17c-1.81-0.89-3.95-0.05-4.78,1.88
			c-0.83,1.93-0.04,4.22,1.76,5.1c0.87,0.43,1.85,0.47,2.76,0.11c0.9-0.36,1.62-1.06,2.03-2c0.31-0.73,0.4-1.55,0.25-2.35l8.6-6.55
			c0.1,0.07,0.2,0.12,0.3,0.17c0.59,0.29,1.23,0.4,1.88,0.32l3.23,5.91c-0.14,0.21-0.25,0.4-0.34,0.61
			c-0.4,0.93-0.44,1.98-0.11,2.94c0.33,0.96,1,1.73,1.87,2.17c0.48,0.24,0.99,0.36,1.51,0.36c0.42,0,0.84-0.08,1.25-0.24
			c0.9-0.36,1.62-1.06,2.02-2c0.38-0.87,0.42-1.88,0.14-2.8l11.31-11.03c0.46,0.21,0.95,0.32,1.42,0.32c1.36,0,2.67-0.83,3.28-2.23
			C52.44,21.65,51.76,19.49,50.13,18.52L50.13,18.52z M50.13,18.52"/>
	</g>
</g>
</svg>
