<svg xmlns="http://www.w3.org/2000/svg" width="13.191" height="15.379" viewBox="0 0 13.191 15.379">
  <defs>
    <style>
      .cls-1 {
        fill: #b2babe;
      }
    </style>
  </defs>
  <g id="组_583" data-name="组 583" transform="translate(-1982.414 492.522)">
    <g id="组_580" data-name="组 580" transform="translate(1989.009 -486.72)">
      <g id="组_577" data-name="组 577" transform="translate(4.259 0)">
        <path id="路径_780" data-name="路径 780" class="cls-1" d="M2875.846-13.824c-.051-.125-.108-.25-.169-.371l1.625-.825c.085.167.163.34.233.514Z" transform="translate(-2875.677 15.02)"/>
      </g>
      <g id="组_578" data-name="组 578" transform="translate(1.358 1.585)">
        <path id="路径_781" data-name="路径 781" class="cls-1" d="M2637.439,123.1l-.518-1.748a4.739,4.739,0,0,0,.938-.392l.878,1.6A6.567,6.567,0,0,1,2637.439,123.1Zm2.452-1.348-1.2-1.375a4.8,4.8,0,0,0,.694-.747l1.46,1.092A6.628,6.628,0,0,1,2639.892,121.755Zm1.675-2.241-1.658-.757a4.737,4.737,0,0,0,.321-.965l1.781.385A6.565,6.565,0,0,1,2641.567,119.514Zm.593-2.735h-1.823a4.808,4.808,0,0,0-.107-1.013l1.781-.385a6.642,6.642,0,0,1,.148,1.4Z" transform="translate(-2636.922 -115.381)"/>
      </g>
      <g id="组_579" data-name="组 579" transform="translate(0 7.737)">
        <path id="路径_782" data-name="路径 782" class="cls-1" d="M2525.185,623.552v-1.823c.136,0,.274-.006.409-.017l.153,1.816C2525.561,623.544,2525.372,623.552,2525.185,623.552Z" transform="translate(-2525.185 -621.712)"/>
      </g>
    </g>
    <g id="组_581" data-name="组 581" transform="translate(1982.414 -490.333)">
      <path id="路径_783" data-name="路径 783" class="cls-1" d="M1989.009-299.223a6.553,6.553,0,0,1-2.567-.519,6.572,6.572,0,0,1-2.1-1.413,6.572,6.572,0,0,1-1.413-2.1,6.555,6.555,0,0,1-.519-2.567,6.556,6.556,0,0,1,.519-2.567,6.572,6.572,0,0,1,1.413-2.1,6.57,6.57,0,0,1,2.1-1.413,6.553,6.553,0,0,1,2.567-.519v1.823a4.778,4.778,0,0,0-4.773,4.773,4.778,4.778,0,0,0,4.773,4.773Z" transform="translate(-1982.414 312.414)"/>
    </g>
    <g id="组_582" data-name="组 582" transform="translate(1988.471 -492.522)">
      <path id="路径_784" data-name="路径 784" class="cls-1" d="M2485.264-489.422l-4.385-3.1v6.2Z" transform="translate(-2480.879 492.522)"/>
    </g>
  </g>
</svg>
