<svg xmlns="http://www.w3.org/2000/svg" width="18" height="17" viewBox="0 0 18 17">
  <defs>
    <style>
      .cls-1 {
        fill: #b2babe;
      }

      .cls-2, .cls-3 {
        fill: #fff;
      }

      .cls-3, .cls-4 {
        stroke: #b2babe;
      }

      .cls-4, .cls-6 {
        fill: none;
      }

      .cls-4 {
        stroke-width: 1.5px;
      }

      .cls-5 {
        stroke: none;
      }
    </style>
  </defs>
  <g id="组_673" data-name="组 673" transform="translate(-28 -319)">
    <g id="组_670" data-name="组 670" transform="translate(-891.061 141.959)">
      <circle id="椭圆_128" data-name="椭圆 128" class="cls-1" cx="8" cy="8" r="8" transform="translate(919.061 177.041)"/>
      <g id="组_564" data-name="组 564" transform="translate(923.499 179.674)">
        <g id="组_530" data-name="组 530" transform="translate(0 3.634)">
          <g id="组_529" data-name="组 529">
            <path id="路径_746" data-name="路径 746" class="cls-2" d="M945.533,212.981h-6.278a.546.546,0,0,1-.545-.545v-6.277a.546.546,0,0,1,.545-.545h6.278a.546.546,0,0,1,.545.545v6.277A.546.546,0,0,1,945.533,212.981Zm-6.278-7.017a.2.2,0,0,0-.194.194v6.277a.2.2,0,0,0,.194.194h6.278a.194.194,0,0,0,.194-.194v-6.277a.194.194,0,0,0-.194-.194Z" transform="translate(-938.71 -205.613)"/>
          </g>
        </g>
        <g id="组_532" data-name="组 532">
          <g id="组_531" data-name="组 531">
            <path id="路径_747" data-name="路径 747" class="cls-2" d="M945.533,191.254h-6.278a.545.545,0,0,1-.545-.545v-2.238a.546.546,0,0,1,.545-.545h6.278a.546.546,0,0,1,.545.545v2.238A.545.545,0,0,1,945.533,191.254Zm-6.278-2.977a.194.194,0,0,0-.194.194v2.238a.194.194,0,0,0,.194.194h6.278a.194.194,0,0,0,.194-.194v-2.238a.194.194,0,0,0-.194-.194Z" transform="translate(-938.71 -187.927)"/>
          </g>
        </g>
        <g id="组_539" data-name="组 539" transform="translate(1.161 4.716)">
          <g id="组_534" data-name="组 534">
            <g id="组_533" data-name="组 533">
              <path id="路径_748" data-name="路径 748" class="cls-2" d="M944.505,211.095l-.146-.146a.3.3,0,0,1,.288-.058l-.04.2C944.539,211.079,944.51,211.089,944.505,211.095Z" transform="translate(-944.36 -210.88)"/>
            </g>
          </g>
          <g id="组_536" data-name="组 536" transform="translate(0.588 0.172)">
            <g id="组_535" data-name="组 535">
              <path id="路径_749" data-name="路径 749" class="cls-2" d="M951.392,216.065c-.054-.1-.123-.212-.2-.333l.171-.115c.084.126.156.244.213.35Zm-.432-.655q-.113-.151-.243-.313l.16-.129q.133.165.248.319Zm-.5-.619q-.125-.147-.262-.3l.153-.138q.139.154.266.3Zm-1.668-1.7q-.152-.137-.3-.262l.134-.157c.1.085.2.173.3.266Zm-.6-.516q-.162-.13-.313-.243l.123-.165q.154.115.319.248Zm-.635-.471c-.121-.081-.233-.149-.333-.2l.1-.181c.106.057.223.129.35.213Z" transform="translate(-947.222 -211.715)"/>
            </g>
          </g>
          <g id="组_538" data-name="组 538" transform="translate(4.899 4.825)">
            <g id="组_537" data-name="组 537">
              <path id="路径_750" data-name="路径 750" class="cls-2" d="M968.349,234.651l-.145-.146c.005-.005.015-.033,0-.1l.2-.041A.3.3,0,0,1,968.349,234.651Z" transform="translate(-968.203 -234.363)"/>
            </g>
          </g>
        </g>
        <g id="组_540" data-name="组 540" transform="translate(3.233 4.683)">
          <path id="路径_751" data-name="路径 751" class="cls-2" d="M954.859,210.723l-.411.613h.823Z" transform="translate(-954.448 -210.723)"/>
        </g>
        <g id="组_541" data-name="组 541" transform="translate(3.233 9.314)">
          <path id="路径_752" data-name="路径 752" class="cls-2" d="M954.859,233.873l.412-.613h-.823Z" transform="translate(-954.448 -233.26)"/>
        </g>
        <g id="组_542" data-name="组 542" transform="translate(5.729 6.857)">
          <path id="路径_753" data-name="路径 753" class="cls-2" d="M967.208,221.714l-.613-.411v.823Z" transform="translate(-966.595 -221.303)"/>
        </g>
        <g id="组_543" data-name="组 543" transform="translate(1.043 6.857)">
          <path id="路径_754" data-name="路径 754" class="cls-2" d="M943.784,221.714l.613.411V221.3Z" transform="translate(-943.784 -221.303)"/>
        </g>
        <g id="组_544" data-name="组 544" transform="translate(3.532 8.32)">
          <path id="路径_755" data-name="路径 755" class="cls-2" d="M956.016,228.436a1.064,1.064,0,0,1-.112-.011v1.188h.225v-1.188A1.058,1.058,0,0,1,956.016,228.436Z" transform="translate(-955.904 -228.425)"/>
        </g>
        <g id="组_545" data-name="组 545" transform="translate(3.532 5.101)">
          <path id="路径_756" data-name="路径 756" class="cls-2" d="M956.016,213.861a1.058,1.058,0,0,1,.112.011v-1.115H955.9v1.115A1.064,1.064,0,0,1,956.016,213.861Z" transform="translate(-955.904 -212.757)"/>
        </g>
        <g id="组_546" data-name="组 546" transform="translate(4.697 7.156)">
          <path id="路径_757" data-name="路径 757" class="cls-2" d="M961.57,222.759a.567.567,0,0,1,0,.225H962.8v-.225Z" transform="translate(-961.57 -222.759)"/>
        </g>
        <g id="组_547" data-name="组 547" transform="translate(1.46 7.156)">
          <path id="路径_758" data-name="路径 758" class="cls-2" d="M946.939,222.871a1.06,1.06,0,0,1,.011-.112h-1.133v.225h1.133A1.063,1.063,0,0,1,946.939,222.871Z" transform="translate(-945.818 -222.759)"/>
        </g>
        <g id="组_550" data-name="组 550" transform="translate(1.095 4.784)">
          <g id="组_548" data-name="组 548">
            <path id="路径_759" data-name="路径 759" class="cls-2" d="M945.582,213.378c-1.029-1.145-1.433-1.915-1.33-2.017l-.146-.145c-.32.321.6,1.505,1.428,2.414A1.052,1.052,0,0,1,945.582,213.378Z" transform="translate(-944.041 -211.215)"/>
          </g>
          <g id="组_549" data-name="组 549" transform="translate(2.613 3.494)">
            <path id="路径_760" data-name="路径 760" class="cls-2" d="M959.113,229.626c-.106.1-.909-.32-2.1-1.4a1.06,1.06,0,0,1-.252.047,5.948,5.948,0,0,0,2.314,1.569.246.246,0,0,0,.182-.065Z" transform="translate(-956.762 -228.222)"/>
          </g>
        </g>
        <g id="组_551" data-name="组 551" transform="translate(2.595 8.71)">
          <path id="路径_761" data-name="路径 761" class="cls-2" d="M951.341,230.579l.127.162c.1-.082.212-.169.323-.262l-.132-.158Q951.5,230.458,951.341,230.579Z" transform="translate(-951.341 -230.322)"/>
        </g>
        <g id="组_552" data-name="组 552" transform="translate(1.161 9.626)">
          <path id="路径_762" data-name="路径 762" class="cls-2" d="M944.5,234.837l-.146.146a.254.254,0,0,0,.187.069.835.835,0,0,0,.317-.083l-.082-.189C944.571,234.871,944.513,234.845,944.5,234.837Z" transform="translate(-944.359 -234.78)"/>
        </g>
        <g id="组_553" data-name="组 553" transform="translate(3.223 8.296)">
          <path id="路径_763" data-name="路径 763" class="cls-2" d="M954.818,228.342a1.054,1.054,0,0,1-.26-.036c-.054.049-.109.1-.162.147l.136.154c.1-.085.2-.174.294-.266Z" transform="translate(-954.396 -228.306)"/>
        </g>
        <g id="组_554" data-name="组 554" transform="translate(1.932 9.212)">
          <path id="路径_764" data-name="路径 764" class="cls-2" d="M948.116,232.992l.109.175c.107-.067.224-.145.348-.233l-.12-.167C948.333,232.852,948.22,232.928,948.116,232.992Z" transform="translate(-948.116 -232.766)"/>
        </g>
        <g id="组_555" data-name="组 555" transform="translate(4.673 7.002)">
          <path id="路径_765" data-name="路径 765" class="cls-2" d="M961.453,222.018a1.066,1.066,0,0,1,.035.259s0,0,0,.007l.125-.135-.153-.138Z" transform="translate(-961.453 -222.011)"/>
        </g>
        <g id="组_556" data-name="组 556" transform="translate(5.913 5.036)">
          <path id="路径_766" data-name="路径 766" class="cls-2" d="M967.637,212.44a1.391,1.391,0,0,1-.147.351l.181.1a1.58,1.58,0,0,0,.168-.407Z" transform="translate(-967.49 -212.44)"/>
        </g>
        <g id="组_557" data-name="组 557" transform="translate(4.95 6.382)">
          <path id="路径_767" data-name="路径 767" class="cls-2" d="M962.806,219.3l.156.135c.094-.108.182-.215.266-.318l-.16-.13Q962.944,219.144,962.806,219.3Z" transform="translate(-962.806 -218.991)"/>
        </g>
        <g id="组_558" data-name="组 558" transform="translate(5.465 5.73)">
          <path id="路径_768" data-name="路径 768" class="cls-2" d="M965.31,216.148l.165.124c.089-.119.17-.232.242-.34l-.171-.115C965.476,215.921,965.4,216.032,965.31,216.148Z" transform="translate(-965.31 -215.817)"/>
        </g>
        <g id="组_559" data-name="组 559" transform="translate(1.095 7.407)">
          <path id="路径_769" data-name="路径 769" class="cls-2" d="M945.6,224.221a1.053,1.053,0,0,1-.058-.239c-.83.909-1.757,2.1-1.435,2.421l.146-.146C944.149,226.155,944.558,225.377,945.6,224.221Z" transform="translate(-944.041 -223.982)"/>
        </g>
        <path id="路径_770" data-name="路径 770" class="cls-2" d="M957.127,212.4a1.064,1.064,0,0,1,.239.059c1.156-1.042,1.934-1.451,2.036-1.348l.146-.145C959.227,210.642,958.037,211.568,957.127,212.4Z" transform="translate(-953.343 -206.179)"/>
        <path id="路径_771" data-name="路径 771" class="cls-2" d="M952.412,219.428a.192.192,0,0,1,.058.009,1.581,1.581,0,0,1,.228-.21.2.2,0,0,1-.005-.046.194.194,0,0,1,.01-.062,1.428,1.428,0,0,0-.3-.166.925.925,0,0,0-.258.238,1.438,1.438,0,0,0,.184.256A.193.193,0,0,1,952.412,219.428Zm-.2.2a.193.193,0,0,1,.016-.077,1.588,1.588,0,0,1-.17-.223.921.921,0,0,0,.032.884,1.562,1.562,0,0,1,.162-.466A.194.194,0,0,1,952.216,219.624Zm.672-.639a.194.194,0,0,1,.134.053,1.568,1.568,0,0,1,.322-.1.92.92,0,0,0-.782-.064,1.581,1.581,0,0,1,.228.137A.2.2,0,0,1,952.888,218.985Zm.293.922a.192.192,0,0,1,.051-.066,1.429,1.429,0,0,0-.267-.481.195.195,0,0,1-.19-.021,1.44,1.44,0,0,0-.2.181.194.194,0,0,1,.03.1.19.19,0,0,1-.009.059A1.424,1.424,0,0,0,953.181,219.907Zm.254.264c0,.037,0,.075,0,.112a1.579,1.579,0,0,1-.012.2.923.923,0,0,0,.335-.464,1.527,1.527,0,0,1-.218.037A.2.2,0,0,1,953.435,220.172Zm-.3-.133a1.56,1.56,0,0,1-.621-.249.194.194,0,0,1-.1.029.2.2,0,0,1-.04,0,1.43,1.43,0,0,0-.16.549.925.925,0,0,0,.315.22A1.567,1.567,0,0,1,953.135,220.039Zm.367-.985a1.43,1.43,0,0,0-.42.107.129.129,0,0,1,0,.02.193.193,0,0,1-.02.086,1.573,1.573,0,0,1,.3.529.2.2,0,0,1,.177.12,1.427,1.427,0,0,0,.258-.05.907.907,0,0,0,.009-.129A.919.919,0,0,0,953.5,219.054Zm-.269,1.089a1.432,1.432,0,0,0-.573.486.925.925,0,0,0,.612-.059,1.432,1.432,0,0,0,.029-.287c0-.035,0-.071,0-.105A.194.194,0,0,1,953.234,220.144Z" transform="translate(-949.241 -212.47)"/>
        <g id="组_560" data-name="组 560" transform="translate(0.646 0.644)">
          <rect id="矩形_1676" data-name="矩形 1676" class="cls-2" width="1.165" height="0.527"/>
        </g>
        <g id="组_561" data-name="组 561" transform="translate(0.646 2.129)">
          <rect id="矩形_1677" data-name="矩形 1677" class="cls-2" width="1.165" height="0.527"/>
        </g>
        <g id="组_562" data-name="组 562" transform="translate(5.584 0.644)">
          <rect id="矩形_1678" data-name="矩形 1678" class="cls-2" width="1.165" height="0.527"/>
        </g>
        <g id="组_563" data-name="组 563" transform="translate(5.584 2.129)">
          <rect id="矩形_1679" data-name="矩形 1679" class="cls-2" width="1.165" height="0.527"/>
        </g>
        <path id="路径_772" data-name="路径 772" class="cls-2" d="M949.38,193.649h-4.938a.064.064,0,0,1-.018-.125l2.267-.681-2.267-.681a.064.064,0,0,1,.018-.125h4.938a.064.064,0,0,1,.018.125l-2.267.681,2.267.681a.064.064,0,0,1-.018.125Zm-4.506-.127h4.074l-2.037-.612Zm0-1.358,2.037.612,2.037-.612Z" transform="translate(-943.213 -191.193)"/>
      </g>
    </g>
    <g id="组_671" data-name="组 671" transform="translate(-15.104 -122.104)">
      <g id="椭圆_129" data-name="椭圆 129" class="cls-3" transform="translate(52.104 449.104)">
        <circle class="cls-5" cx="4.5" cy="4.5" r="4.5"/>
        <circle class="cls-6" cx="4.5" cy="4.5" r="4"/>
      </g>
      <g id="组_591" data-name="组 591" transform="translate(54.104 451.104)">
        <line id="直线_391" data-name="直线 391" class="cls-4" x2="5" transform="translate(0 2.5)"/>
        <line id="直线_392" data-name="直线 392" class="cls-4" y2="5" transform="translate(2.5)"/>
      </g>
    </g>
  </g>
</svg>
