<?xml version="1.0" encoding="utf-8"?>
<!-- Generator: Adobe Illustrator 19.0.0, SVG Export Plug-In . SVG Version: 6.00 Build 0)  -->
<svg version="1.1" id="图层_1" xmlns="http://www.w3.org/2000/svg" xmlns:xlink="http://www.w3.org/1999/xlink" x="0px" y="0px"
	 width="60px" height="60px" viewBox="0 0 60 60" style="enable-background:new 0 0 60 60;" xml:space="preserve">
<style type="text/css">
	.st0{clip-path:url(#XMLID_41_);fill:#1A73E8;}
</style>
<g id="XMLID_85_">
	<g id="XMLID_87_">
		<defs>
			<rect id="XMLID_88_" x="1.6" y="1.6" width="55.5" height="55.6"/>
		</defs>
		<clipPath id="XMLID_41_">
			<use xlink:href="#XMLID_88_"  style="overflow:visible;"/>
		</clipPath>
		<path id="XMLID_89_" class="st0" d="M56,15.6c0,0-7.9,8-8.7,8.8c-0.8,0.8-3.5,0.7-3.5,0.7s-7.2-0.8-8.2-1.9c-1-1-1.7-8.6-1.7-8.6
			s-0.2-2.1,0.8-3.1c1-1,8.7-8.7,8.7-8.7s1-1.1-0.4-1.1c-4.6,0-14,0.1-18.5,4.6l-0.9,0.9c-5.2,5.3-5.7,13.2-1.7,19L4.1,41.8
			C2,44-0.3,50.2,4.1,54.6s10.6,2.1,12.7,0c0,0,12.6-14.2,15.6-17.5c5.8,4.2,13.8,3.7,19.1-1.6l0.9-0.9c4.4-4.4,4.5-13.7,4.6-18.4
			C57.1,14.6,56,15.6,56,15.6L56,15.6z M11.9,52.1c-2.9,0-5.2-2.3-5.2-5.2c0-2.9,2.3-5.2,5.2-5.2c2.9,0,5.2,2.3,5.2,5.2
			C17.1,49.8,14.8,52.1,11.9,52.1L11.9,52.1z M11.9,52.1"/>
	</g>
</g>
</svg>
