<?xml version="1.0" encoding="utf-8"?>
<!-- Generator: Adobe Illustrator 19.0.0, SVG Export Plug-In . SVG Version: 6.00 Build 0)  -->
<svg version="1.1" id="图层_1" xmlns="http://www.w3.org/2000/svg" xmlns:xlink="http://www.w3.org/1999/xlink" x="0px" y="0px"
	 width="60px" height="60px" viewBox="0 0 60 60" style="enable-background:new 0 0 60 60;" xml:space="preserve">
<style type="text/css">
	.st0{clip-path:url(#XMLID_42_);fill:#1A73E8;}
</style>
<g id="XMLID_63_">
	<g id="XMLID_67_">
		<defs>
			
				<rect id="XMLID_40_" x="10.5" y="10.7" transform="matrix(-0.7071 0.7071 -0.7071 -0.7071 73.4154 30.8257)" width="39.7" height="39.8"/>
		</defs>
		<clipPath id="XMLID_42_">
			<use xlink:href="#XMLID_40_"  style="overflow:visible;"/>
		</clipPath>
		<path id="XMLID_69_" class="st0" d="M48.5,22.6c0.6,0.5,1.2,1,2,1.5c0.7,0.6,1.5,1.2,2.2,1.8c0.7,0.6,1.5,1.2,2.2,1.8
			c0.7,0.6,1.4,1.1,2,1.6c1.1,0.8,1.1,1.7,0.1,2.5c-0.5,0.5-1.2,1-1.9,1.5c-0.7,0.6-1.4,1.1-2.2,1.7c-0.7,0.6-1.5,1.2-2.2,1.7
			c-0.7,0.6-1.4,1.1-2,1.6c-0.6,0.5-1.2,0.7-1.6,0.6c-0.4-0.1-0.6-0.5-0.6-1.2c0-0.4,0-1,0-1.6c0-0.7,0-1.2,0-1.7
			c0-0.5-0.2-0.7-0.4-0.9c-0.3-0.1-0.7-0.2-1.2-0.2c-1.1,0-2.1,0-3,0.1c-0.9,0-1.9,0-3.1,0c-0.2,0-0.5,0-0.7,0
			c-0.3,0-0.5-0.1-0.7-0.2c-0.2-0.1-0.4-0.3-0.6-0.5c-0.1-0.2-0.2-0.6-0.2-1c0-0.2,0-0.4,0-0.6c0-0.2,0-0.3,0-0.5c0-0.1,0-0.3,0-0.5
			c0-0.2,0-0.4,0-0.7c0-0.8,0.2-1.3,0.6-1.6c0.4-0.3,1-0.4,1.8-0.4c0.8,0,1.6,0,2.4,0c0.8,0,1.8,0,2.8,0c0.7,0,1.3-0.1,1.7-0.2
			c0.4-0.1,0.6-0.5,0.6-1c0-0.4,0-0.8,0-1.3c0-0.5,0-1,0-1.4c0-0.7,0.2-1.1,0.5-1.3C47.5,22,48,22.2,48.5,22.6L48.5,22.6z
			 M12.2,38.6c-0.6-0.5-1.2-1-2-1.5c-0.7-0.6-1.5-1.2-2.2-1.8c-0.7-0.6-1.5-1.2-2.2-1.8c-0.7-0.6-1.4-1.1-2-1.6
			c-0.6-0.5-0.9-0.9-0.9-1.3c0-0.4,0.2-0.8,0.8-1.2c0.5-0.5,1.2-1,1.9-1.5c0.7-0.6,1.4-1.1,2.2-1.7c0.7-0.6,1.5-1.2,2.2-1.7
			c0.7-0.6,1.4-1.1,2-1.6c0.7-0.5,1.2-0.7,1.6-0.6c0.4,0.1,0.6,0.5,0.6,1.2c0,0.4,0,0.9,0,1.5c0,0.6,0,1.1,0,1.6
			c0,0.5,0.1,0.8,0.4,0.9c0.3,0.1,0.7,0.2,1.2,0.2c0.5,0,1,0,1.5,0c0.4,0,0.9,0,1.3,0c0.4,0,0.9,0,1.4,0h1.5c0.2,0,0.5,0,0.8,0.1
			c0.3,0.1,0.5,0.1,0.7,0.3c0.2,0.1,0.4,0.3,0.6,0.6c0.1,0.3,0.2,0.6,0.2,1l0,0.7c0,0.2,0,0.3,0,0.5c0,0.1,0,0.3,0,0.5l0,0.7
			c0,0.8-0.2,1.3-0.6,1.5c-0.4,0.2-1,0.3-1.8,0.3c-0.8,0-1.6,0-2.3,0c-0.7,0-1.6,0-2.6,0c-0.7,0-1.3,0.1-1.7,0.2
			c-0.4,0.1-0.6,0.5-0.6,1c0,0.4,0,0.9,0,1.5c0,0.6,0,1.1,0,1.5c0,0.7-0.2,1.1-0.5,1.3C13.2,39.2,12.8,39,12.2,38.6L12.2,38.6z
			 M29,3.9c0.5-0.6,0.9-0.9,1.3-0.9c0.4,0,0.8,0.3,1.3,0.8c0.5,0.5,1,1.2,1.5,1.9c0.6,0.7,1.1,1.4,1.7,2.2c0.6,0.7,1.2,1.5,1.7,2.2
			c0.6,0.7,1.1,1.4,1.6,2c0.5,0.6,0.7,1.2,0.6,1.6c-0.1,0.4-0.5,0.6-1.2,0.6c-0.4,0-0.9,0-1.5,0c-0.6,0-1.1,0-1.6,0
			c-0.5,0-0.8,0.2-0.9,0.4c-0.1,0.3-0.2,0.7-0.2,1.2c0,1.1,0,2,0,2.9c0,0.8,0,1.8,0,3c0,0.2,0,0.5-0.1,0.8c0,0.3-0.1,0.5-0.3,0.7
			c-0.1,0.2-0.3,0.4-0.6,0.6c-0.3,0.1-0.6,0.2-1,0.2c-0.2,0-0.4,0-0.6,0c-0.2,0-0.3,0-0.5,0c-0.2,0-0.3,0-0.5,0c-0.2,0-0.4,0-0.7,0
			c-0.8,0-1.3-0.2-1.5-0.6c-0.2-0.4-0.3-1-0.3-1.8l-0.1-2.3c0-0.8,0-1.7,0-2.7c0-0.7,0-1.3-0.2-1.7c-0.1-0.4-0.5-0.6-1-0.6
			c-0.4,0-0.8,0-1.4,0c-0.6,0-1.1,0-1.5,0c-0.7,0-1.1-0.2-1.3-0.5c-0.2-0.3,0-0.8,0.4-1.4c0.5-0.6,1-1.2,1.5-2
			c0.6-0.7,1.2-1.5,1.8-2.2c0.6-0.8,1.2-1.5,1.8-2.2C28,5.2,28.5,4.5,29,3.9L29,3.9z M29,37.1c0.2,0,0.4,0,0.6,0c0.2,0,0.3,0,0.5,0
			l0.5,0l0.7,0c0.8,0,1.3,0.2,1.6,0.6c0.3,0.4,0.4,1,0.4,1.8c0,0.8,0,1.6,0,2.4c0,0.8,0,1.8,0,2.8c0,0.7,0.1,1.2,0.2,1.6
			c0.1,0.3,0.5,0.5,1,0.5c0.4,0,0.8,0,1.3,0c0.5,0,1,0,1.4,0c0.7,0,1.1,0.2,1.3,0.5c0.2,0.3,0,0.8-0.4,1.4c-0.5,0.6-1,1.2-1.5,1.9
			c-0.6,0.7-1.1,1.5-1.8,2.2c-0.6,0.8-1.2,1.5-1.8,2.3c-0.6,0.7-1.1,1.4-1.6,2C31,57.7,30.6,58,30.2,58c-0.4,0-0.8-0.2-1.3-0.7
			c-0.5-0.5-1-1.2-1.5-1.9c-0.6-0.7-1.1-1.4-1.7-2.2c-0.6-0.7-1.2-1.5-1.7-2.2c-0.6-0.7-1.1-1.4-1.6-2c-0.5-0.7-0.7-1.2-0.6-1.6
			c0.1-0.4,0.5-0.6,1.2-0.6c0.4,0,0.9,0,1.6,0c0.7,0,1.2,0,1.7,0c0.5,0,0.8-0.1,0.9-0.3c0.1-0.2,0.2-0.5,0.2-1c0-0.5,0-1,0-1.5
			c0-0.5,0-1,0-1.5c0-0.5,0-1,0-1.5c0-0.5,0-1,0-1.6c0-0.2,0-0.5,0-0.7c0-0.3,0.1-0.5,0.2-0.7c0.1-0.2,0.3-0.4,0.5-0.6
			C28.2,37.1,28.6,37.1,29,37.1L29,37.1z M29,37.1"/>
	</g>
</g>
</svg>
