<svg xmlns="http://www.w3.org/2000/svg" width="13.645" height="12.405" viewBox="0 0 13.645 12.405">
  <defs>
    <style>
      .cls-1 {
        fill: #b2babe;
      }
    </style>
  </defs>
  <g id="组_574" data-name="组 574" transform="translate(-8 -10)">
    <path id="路径_775" data-name="路径 775" class="cls-1" d="M9.427,10.806H20.219a.556.556,0,0,1,.558.558v4.4a4.842,4.842,0,0,0-2.419-1.116c-1.178,0-2.233,2.729-3.535,2.729-.992-.062-2.357-1.178-3.907-.992-.62.124-1.489,1.116-2.047,1.861V11.365a.556.556,0,0,1,.558-.558Zm2.6,4.466a1.732,1.732,0,0,1-1.24-.5,1.8,1.8,0,0,1,0-2.481,1.732,1.732,0,0,1,1.24-.5,1.97,1.97,0,0,1,1.24.5,1.8,1.8,0,0,1,0,2.481,1.97,1.97,0,0,1-1.24.5ZM20.529,10H9.116A1.112,1.112,0,0,0,8,11.116V21.288A1.112,1.112,0,0,0,9.116,22.4H20.529a1.112,1.112,0,0,0,1.116-1.116V11.116A1.112,1.112,0,0,0,20.529,10Zm0,0" transform="translate(0 0)"/>
  </g>
</svg>
