<?xml version="1.0" encoding="utf-8"?>
<!-- Generator: Adobe Illustrator 23.0.0, SVG Export Plug-In . SVG Version: 6.00 Build 0)  -->
<svg version="1.1" id="图层_1" xmlns="http://www.w3.org/2000/svg" xmlns:xlink="http://www.w3.org/1999/xlink" x="0px" y="0px"
	 width="60px" height="60px" viewBox="0 0 60 60" style="enable-background:new 0 0 60 60;" xml:space="preserve">
<style type="text/css">
	.st0{fill:#B9BFC6;}
	.st1{fill:#FFFFFF;}
</style>
<g id="XMLID_239_">
	<path class="st0" d="M43.1,46.4H17.2c-8.8,0-15.9-7.1-15.9-15.9v-0.6c0-8.8,7.1-15.9,15.9-15.9h25.9c8.8,0,15.9,7.1,15.9,15.9v0.6
		C59,39.2,51.9,46.4,43.1,46.4z"/>
</g>
<g>
	<path class="st1" d="M16.7,32.8l3.2-0.7c0.3,2,1.4,3,3.3,3c1.4,0,2.2-0.6,2.3-1.8c0-0.8-0.5-1.4-1.5-1.8c-1.1-0.4-2.1-0.7-2.9-0.8
		c-2.7-0.6-4-2-3.9-4.2c0.3-2.4,2-3.7,5.3-3.9c3.5-0.1,5.5,1.3,6,4.1l-3.2,0.6c-0.2-1.4-1.1-2.1-2.7-2.1c-1.3,0-1.9,0.5-2,1.4
		c-0.1,0.8,0.8,1.4,2.6,1.8c1.4,0.3,2.5,0.7,3.4,1.2c1.5,0.9,2.3,2.1,2.4,3.7c-0.1,2.8-2,4.2-5.7,4.3C19.6,37.7,17.4,36.1,16.7,32.8
		z"/>
	<path class="st1" d="M43.5,37.3h-3.3l-5.7-9.1c-0.3-0.4-0.5-0.9-0.8-1.3c0,0.6,0.1,1.4,0.1,2.4v7.9h-3.1V22.9h3.5l5.5,8.9
		c0,0.1,0.1,0.2,0.2,0.3c0.3,0.5,0.5,0.9,0.6,1.1v-0.1c0-0.5-0.1-1.2-0.1-2.2v-8.1h3.1V37.3z"/>
</g>
</svg>
