<?xml version="1.0" encoding="utf-8"?>
<!-- Generator: Adobe Illustrator 23.0.0, SVG Export Plug-In . SVG Version: 6.00 Build 0)  -->
<svg version="1.1" id="图层_1" xmlns="http://www.w3.org/2000/svg" xmlns:xlink="http://www.w3.org/1999/xlink" x="0px" y="0px"
	 width="60px" height="60px" viewBox="0 0 60 60" style="enable-background:new 0 0 60 60;" xml:space="preserve">
<style type="text/css">
	.st0{fill:#1A73E8;}
	.st1{fill:#FFFFFF;}
</style>
<g id="XMLID_287_">
	<path class="st0" d="M43.4,46H17.1C8.5,46,1.5,39,1.5,30.4v-1.1c0-8.6,7-15.6,15.6-15.6h26.3c8.6,0,15.6,7,15.6,15.6v1.1
		C59,39,52,46,43.4,46z"/>
</g>
<g>
	<path class="st1" d="M16.9,32.5l3.2-0.7c0.3,2,1.3,3,3.3,3c1.4,0,2.2-0.6,2.3-1.8c0-0.8-0.5-1.4-1.5-1.8c-1.1-0.4-2-0.7-2.9-0.8
		c-2.7-0.6-3.9-2-3.9-4.2c0.3-2.4,2-3.7,5.3-3.9c3.4-0.1,5.4,1.3,6,4.1l-3.2,0.6c-0.2-1.4-1.1-2.1-2.7-2.1c-1.3,0-1.9,0.5-2,1.4
		c-0.1,0.8,0.8,1.4,2.5,1.8c1.4,0.3,2.5,0.7,3.4,1.2c1.5,0.9,2.3,2.1,2.4,3.7c-0.1,2.8-2,4.2-5.7,4.3C19.8,37.3,17.6,35.7,16.9,32.5
		z"/>
	<path class="st1" d="M43.6,37h-3.3l-5.7-9c-0.3-0.4-0.5-0.9-0.8-1.3c0,0.6,0.1,1.4,0.1,2.4V37h-3.1V22.7h3.5l5.5,8.8
		c0,0.1,0.1,0.2,0.2,0.3c0.3,0.5,0.5,0.8,0.6,1.1v-0.1c0-0.5-0.1-1.2-0.1-2.2v-8h3.1V37z"/>
</g>
</svg>
