<?xml version="1.0" encoding="utf-8"?>
<!-- Generator: Adobe Illustrator 19.0.0, SVG Export Plug-In . SVG Version: 6.00 Build 0)  -->
<svg version="1.1" id="图层_1" xmlns="http://www.w3.org/2000/svg" xmlns:xlink="http://www.w3.org/1999/xlink" x="0px" y="0px"
	 width="60px" height="60px" viewBox="-267 390.9 60 60" style="enable-background:new -267 390.9 60 60;" xml:space="preserve">
<style type="text/css">
	.st0{fill:#1A73E8;}
	.st1{fill:url(#XMLID_2_);}
	.st2{fill:#FFFFFF;}
</style>
<circle id="XMLID_143_" class="st0" cx="-236.9" cy="421" r="30.1"/>
<linearGradient id="XMLID_2_" gradientUnits="userSpaceOnUse" x1="-251.3375" y1="406.8216" x2="-215.8147" y2="442.3445">
	<stop  offset="0" style="stop-color:#015AB5"/>
	<stop  offset="1" style="stop-color:#3B91E9"/>
</linearGradient>
<path id="XMLID_149_" class="st1" d="M-206.9,421c0-0.2,0-0.3,0-0.5l-12.1-12.3h-33.7v28.2l15.3,14.6c0.2,0,0.3,0,0.5,0
	C-220.3,451-206.9,437.6-206.9,421z"/>
<g id="XMLID_150_">
	<path id="XMLID_151_" class="st2" d="M-219.1,428.4c0,0.4-0.3,0.7-0.7,0.7h-32.7c-0.4,0-0.7-0.3-0.7-0.7v-2.7
		c0-0.4,0.3-0.7,0.7-0.7h32.7c0.4,0,0.7,0.3,0.7,0.7V428.4z M-219.1,434.5c0,0.4-0.3,0.7-0.7,0.7h-32.7c-0.4,0-0.7-0.3-0.7-0.7v-2.7
		c0-0.4,0.3-0.7,0.7-0.7h32.7c0.4,0,0.7,0.3,0.7,0.7V434.5z M-219.8,407.8h-32.7c-0.4,0-0.7,0.3-0.7,0.7v13.8c0,0.4,0.3,0.7,0.7,0.7
		h32.7c0.4,0,0.7-0.3,0.7-0.7v-13.8C-219.1,408.1-219.4,407.8-219.8,407.8L-219.8,407.8z M-239.3,414.5c0,0.4-0.3,0.7-0.7,0.7h-9.2
		c-0.4,0-0.7-0.3-0.7-0.7v-2.7c0-0.4,0.3-0.7,0.7-0.7h9.2c0.4,0,0.7,0.3,0.7,0.7V414.5z M-239.3,414.5"/>
</g>
</svg>
