<?xml version="1.0" encoding="utf-8"?>
<!-- Generator: Adobe Illustrator 23.0.0, SVG Export Plug-In . SVG Version: 6.00 Build 0)  -->
<svg version="1.1" id="图层_1" xmlns="http://www.w3.org/2000/svg" xmlns:xlink="http://www.w3.org/1999/xlink" x="0px" y="0px"
	 width="60px" height="60px" viewBox="0 0 60 60" style="enable-background:new 0 0 60 60;" xml:space="preserve">
<style type="text/css">
	.st0{fill:#B9BFC6;}
	.st1{fill:#FFFFFF;}
</style>
<g id="XMLID_234_">
	<path class="st0" d="M43,46.9H17.6c-8.7,0-15.8-7.1-15.8-15.8v-0.4C1.9,22.1,8.9,15,17.6,15H43c8.7,0,15.8,7.1,15.8,15.8v0.4
		C58.7,39.9,51.7,46.9,43,46.9z"/>
</g>
<g>
	<path class="st1" d="M29.4,38.1H18.2V23.9h11v2.7h-7.8v3h7.2v2.7h-7.2v3.4h8V38.1z"/>
	<path class="st1" d="M36.7,33.1h-2.4v5H31V23.9h6c3.4,0.1,5.2,1.6,5.4,4.5C42.4,31.5,40.5,33.1,36.7,33.1z M36.4,26.3h-2.1v4.3h2.1
		c1.7,0,2.5-0.8,2.6-2.2C39,27.1,38.1,26.4,36.4,26.3z"/>
</g>
</svg>
