<?xml version="1.0" encoding="utf-8"?>
<!-- Generator: Adobe Illustrator 23.0.0, SVG Export Plug-In . SVG Version: 6.00 Build 0)  -->
<svg version="1.1" id="图层_1" xmlns="http://www.w3.org/2000/svg" xmlns:xlink="http://www.w3.org/1999/xlink" x="0px" y="0px"
	 width="60px" height="60px" viewBox="0 0 60 60" style="enable-background:new 0 0 60 60;" xml:space="preserve">
<style type="text/css">
	.st0{fill:#1A73E8;}
	.st1{fill:#FFFFFF;}
</style>
<g id="XMLID_283_">
	<path class="st0" d="M42.9,45H17.8C8.9,45,1.7,37.8,1.7,28.9v0c0-8.9,7.2-16.1,16.1-16.1h25.1C51.8,12.8,59,20,59,28.9v0
		C59,37.8,51.8,45,42.9,45z"/>
</g>
<g>
	<path class="st1" d="M29.8,36.1h-4.1l-3.5-5.6h-1.9v5.6h-3.3V21.8h6.6c3.5,0.1,5.3,1.5,5.5,4.2c0,2.4-1.1,3.8-3.5,4.4L29.8,36.1z
		 M23.1,24.2h-2.8v3.8h2.8c1.7,0,2.6-0.6,2.5-1.9C25.7,24.8,24.9,24.2,23.1,24.2z"/>
	<path class="st1" d="M43.7,36.1h-4.1L36,30.5h-1.9v5.6h-3.3V21.8h6.6c3.5,0.1,5.3,1.5,5.5,4.2c0,2.4-1.1,3.8-3.5,4.4L43.7,36.1z
		 M36.9,24.2h-2.8v3.8h2.8c1.7,0,2.6-0.6,2.5-1.9C39.5,24.8,38.7,24.2,36.9,24.2z"/>
</g>
</svg>
