<?xml version="1.0" encoding="utf-8"?>
<!-- Generator: Adobe Illustrator 23.0.0, SVG Export Plug-In . SVG Version: 6.00 Build 0)  -->
<svg version="1.1" id="图层_1" xmlns="http://www.w3.org/2000/svg" xmlns:xlink="http://www.w3.org/1999/xlink" x="0px" y="0px"
	 width="60px" height="60px" viewBox="0 0 60 60" style="enable-background:new 0 0 60 60;" xml:space="preserve">
<style type="text/css">
	.st0{fill:#1A73E8;}
	.st1{fill:#FFFFFF;}
</style>
<g id="XMLID_286_">
	<path class="st0" d="M43.1,46H17.5C8.7,46,1.5,38.9,1.5,30.1v0c0-8.8,7.1-15.9,15.9-15.9h25.6c8.8,0,15.9,7.1,15.9,15.9v0
		C59,38.9,51.9,46,43.1,46z"/>
</g>
<g>
	<path class="st1" d="M16.9,32.7l3.2-0.6c0.3,2,1.3,3,3.3,3c1.4,0,2.2-0.6,2.3-1.7c0-0.8-0.5-1.4-1.5-1.8c-1.1-0.4-2-0.6-2.9-0.8
		c-2.7-0.6-3.9-1.9-3.9-4.1c0.3-2.4,2-3.6,5.3-3.8c3.4-0.1,5.4,1.2,6,4l-3.2,0.6c-0.2-1.4-1.1-2.1-2.7-2.1c-1.3,0-1.9,0.5-2,1.4
		c-0.1,0.8,0.8,1.4,2.5,1.7c1.4,0.3,2.5,0.7,3.4,1.2c1.5,0.9,2.3,2.1,2.4,3.6c-0.1,2.8-2,4.2-5.7,4.3C19.8,37.4,17.6,35.9,16.9,32.7
		z"/>
	<path class="st1" d="M43.6,37.1h-4.1L36,31.6h-1.9v5.6h-3.3V22.9h6.6c3.5,0.1,5.4,1.5,5.5,4.2c0,2.4-1.1,3.8-3.5,4.3L43.6,37.1z
		 M36.9,25.4h-2.8v3.8h2.8c1.7,0,2.6-0.6,2.5-1.9C39.5,26,38.6,25.3,36.9,25.4z"/>
</g>
</svg>
