<?xml version="1.0" encoding="utf-8"?>
<!-- Generator: Adobe Illustrator 23.0.0, SVG Export Plug-In . SVG Version: 6.00 Build 0)  -->
<svg version="1.1" id="图层_1" xmlns="http://www.w3.org/2000/svg" xmlns:xlink="http://www.w3.org/1999/xlink" x="0px" y="0px"
	 width="60px" height="60px" viewBox="0 0 60 60" style="enable-background:new 0 0 60 60;" xml:space="preserve">
<style type="text/css">
	.st0{fill:#B9BFC6;}
	.st1{fill:#FFFFFF;}
</style>
<g id="XMLID_235_">
	<path class="st0" d="M43.2,45.7H17.6c-8.8,0-15.8-7.1-15.8-15.8v-0.5c0-8.8,7.1-15.8,15.8-15.8h25.6c8.8,0,15.8,7.1,15.8,15.8v0.5
		C59,38.6,51.9,45.7,43.2,45.7z"/>
</g>
<g>
	<path class="st1" d="M29.3,36.7H26l-5.7-9c-0.3-0.4-0.5-0.9-0.8-1.3c0,0.6,0.1,1.4,0.1,2.4v7.9h-3.1V22.4h3.5l5.5,8.8
		c0,0.1,0.1,0.2,0.2,0.3c0.3,0.5,0.5,0.8,0.6,1.1v-0.1c0-0.5-0.1-1.2-0.1-2.1v-8h3.1V36.7z"/>
	<path class="st1" d="M44,26.6l-3.1,0.7c-0.4-1.5-1.4-2.3-3-2.3c-2.2,0.1-3.4,1.7-3.5,4.6c0.1,3,1.3,4.6,3.5,4.8
		c1.8,0,2.8-1.1,3.1-3.2l3.1,1c-0.7,3.3-2.8,4.9-6.3,4.9c-4.4-0.2-6.8-2.7-7-7.4c0.2-4.6,2.5-7.1,7-7.4C41,22.3,43.1,23.8,44,26.6z"
		/>
</g>
</svg>
