<?xml version="1.0" encoding="utf-8"?>
<!-- Generator: Adobe Illustrator 19.0.0, SVG Export Plug-In . SVG Version: 6.00 Build 0)  -->
<svg version="1.1" id="图层_1" xmlns="http://www.w3.org/2000/svg" xmlns:xlink="http://www.w3.org/1999/xlink" x="0px" y="0px"
	 width="60px" height="60px" viewBox="-267 390.9 60 60" style="enable-background:new -267 390.9 60 60;" xml:space="preserve">
<style type="text/css">
	.st0{clip-path:url(#XMLID_2_);fill:#1A73E8;}
</style>
<g id="XMLID_259_">
	<g id="XMLID_260_">
		<defs>
			<rect id="XMLID_251_" x="-266.7" y="391.1" width="58.5" height="59.6"/>
		</defs>
		<clipPath id="XMLID_2_">
			<use xlink:href="#XMLID_251_"  style="overflow:visible;"/>
		</clipPath>
		<path id="XMLID_262_" class="st0" d="M-243.3,439c0,0.3-0.1,0.5-0.3,0.8l-10.6,10.6c-0.2,0.2-0.5,0.3-0.8,0.3
			c-0.3,0-0.5-0.1-0.8-0.3l-10.6-10.6c-0.3-0.4-0.4-0.7-0.2-1.2c0.2-0.4,0.5-0.7,1-0.7h6.4v-45.7c0-0.3,0.1-0.6,0.3-0.8
			c0.2-0.2,0.5-0.3,0.8-0.3h6.4c0.3,0,0.6,0.1,0.8,0.3c0.2,0.2,0.3,0.5,0.3,0.8v45.7h6.4c0.3,0,0.6,0.1,0.8,0.3
			C-243.4,438.4-243.3,438.6-243.3,439L-243.3,439z M-227.4,392.2v6.4c0,0.3-0.1,0.6-0.3,0.8c-0.2,0.2-0.5,0.3-0.8,0.3h-8.5
			c-0.3,0-0.6-0.1-0.8-0.3c-0.2-0.2-0.3-0.5-0.3-0.8v-6.4c0-0.3,0.1-0.6,0.3-0.8c0.2-0.2,0.5-0.3,0.8-0.3h8.5c0.3,0,0.6,0.1,0.8,0.3
			C-227.5,391.6-227.4,391.8-227.4,392.2L-227.4,392.2z M-221,409.2v6.4c0,0.3-0.1,0.6-0.3,0.8c-0.2,0.2-0.5,0.3-0.8,0.3h-14.9
			c-0.3,0-0.6-0.1-0.8-0.3c-0.2-0.2-0.3-0.5-0.3-0.8v-6.4c0-0.3,0.1-0.6,0.3-0.8c0.2-0.2,0.5-0.3,0.8-0.3h14.9
			c0.3,0,0.6,0.1,0.8,0.3C-221.1,408.6-221,408.9-221,409.2L-221,409.2z M-214.6,426.2v6.4c0,0.3-0.1,0.6-0.3,0.8
			c-0.2,0.2-0.5,0.3-0.8,0.3h-21.3c-0.3,0-0.6-0.1-0.8-0.3c-0.2-0.2-0.3-0.5-0.3-0.8v-6.4c0-0.3,0.1-0.6,0.3-0.8
			c0.2-0.2,0.5-0.3,0.8-0.3h21.3c0.3,0,0.6,0.1,0.8,0.3C-214.7,425.6-214.6,425.9-214.6,426.2L-214.6,426.2z M-208.2,443.2v6.4
			c0,0.3-0.1,0.6-0.3,0.8c-0.2,0.2-0.5,0.3-0.8,0.3h-27.7c-0.3,0-0.6-0.1-0.8-0.3c-0.2-0.2-0.3-0.5-0.3-0.8v-6.4
			c0-0.3,0.1-0.6,0.3-0.8c0.2-0.2,0.5-0.3,0.8-0.3h27.7c0.3,0,0.6,0.1,0.8,0.3C-208.3,442.6-208.2,442.9-208.2,443.2L-208.2,443.2z
			 M-208.2,443.2"/>
	</g>
</g>
</svg>
