<?xml version="1.0" encoding="utf-8"?>
<!-- Generator: Adobe Illustrator 23.0.0, SVG Export Plug-In . SVG Version: 6.00 Build 0)  -->
<svg version="1.1" id="图层_1" xmlns="http://www.w3.org/2000/svg" xmlns:xlink="http://www.w3.org/1999/xlink" x="0px" y="0px"
	 width="60px" height="60px" viewBox="0 0 60 60" style="enable-background:new 0 0 60 60;" xml:space="preserve">
<style type="text/css">
	.st0{fill:#4baefd;}
	.st1{fill:#FFFFFF;}
</style>
<path class="st0" d="M51.1,56.06H8.82c-2.76,0-5-2.24-5-5V8.78c0-2.76,2.24-5,5-5H51.1c2.76,0,5,2.24,5,5v42.28
	C56.1,53.82,53.86,56.06,51.1,56.06z"/>
<g>
	<path class="st1" d="M29.96,32.92l10.11,10.11l2.58-2.58L29.96,27.77L17.27,40.45l2.58,2.57L29.96,32.92z M29.96,32.92"/>
	<path class="st1" d="M29.96,21.96l10.11,10.1l2.58-2.58L29.96,16.81L17.27,29.49l2.58,2.58L29.96,21.96z M29.96,21.96"/>
</g>
</svg>
